<svg xmlns="http://www.w3.org/2000/svg" viewBox="0 0 849.98 850.41"><defs><style>.cls-1{fill:#fff;}.cls-2{fill:#b78a43;}.cls-3{fill:#231f20;}</style></defs><title>project_01_v2</title><g id="Layer_2" data-name="Layer 2"><g id="ready_svg"><path class="cls-1" d="M835,262.55H625.31L676.37,297v81.76a12.51,12.51,0,0,0,12.51,12.51H835a12.51,12.51,0,0,0,12.51-12.51V275.06A12.51,12.51,0,0,0,835,262.55Z"/><path class="cls-1" d="M831.77,744.06H619.27l-18.39-33.17-17.61,33.17H547.34a15.56,15.56,0,0,0-15.56,15.57v72.72a15.55,15.55,0,0,0,15.56,15.56H831.77a15.56,15.56,0,0,0,15.56-15.56V759.63A15.57,15.57,0,0,0,831.77,744.06Z"/><path class="cls-1" d="M558.05,262.51l17.62-33.17H709.12a15.56,15.56,0,0,0,15.56-15.56V141.05a15.56,15.56,0,0,0-15.56-15.56H504.35a15.56,15.56,0,0,0-15.56,15.56v72.73a15.56,15.56,0,0,0,15.56,15.56h35.32Z"/><path class="cls-1" d="M341.8,2.5h-168a15.57,15.57,0,0,0-15.57,15.56V119.45A15.57,15.57,0,0,0,173.8,135h168a15.56,15.56,0,0,0,15.56-15.56V18.06A15.56,15.56,0,0,0,341.8,2.5Z"/><rect class="cls-1" x="2.5" y="358.11" width="146.02" height="146.02" rx="23.74"/><path class="cls-2" d="M60.33,269.64h201l-51.06-34.41v-40.4a12.52,12.52,0,0,0-12.51-12.51H60.33a12.51,12.51,0,0,0-12.51,12.51v62.3A12.51,12.51,0,0,0,60.33,269.64Z"/><path class="cls-2" d="M2.82,659.32v91.4a12.51,12.51,0,0,0,12.51,12.51H250.69a12.51,12.51,0,0,0,12.51-12.51V681.21l51.07-34.4H15.33A12.51,12.51,0,0,0,2.82,659.32Z"/><rect class="cls-2" x="674.5" y="545.08" width="146.02" height="146.02" rx="23.74"/><rect class="cls-2" x="647.13" y="38.9" width="52.83" height="52.83"/><rect class="cls-2" x="730.2" y="38.9" width="52.83" height="52.83"/><path class="cls-3" d="M60.33,272.14H99v7.05h5v-7.05H269.51L212.77,233.9V194.83a15,15,0,0,0-15-15H60.33a15,15,0,0,0-15,15v62.3A15,15,0,0,0,60.33,272.14Zm-10-77.31a10,10,0,0,1,10-10H197.76a10,10,0,0,1,10,10v41.73l45.38,30.58H60.33a10,10,0,0,1-10-10Z"/><path class="cls-3" d="M15.33,644.31a15,15,0,0,0-15,15v91.4a15,15,0,0,0,15,15H250.69a15,15,0,0,0,15-15V682.54l56.75-38.23ZM260.7,679.88v70.84a10,10,0,0,1-10,10H15.33a10,10,0,0,1-10-10v-91.4a10,10,0,0,1,10-10H306.08Z"/><path class="cls-3" d="M835,260.05H617.12l56.75,38.24v80.43a15,15,0,0,0,15,15H835a15,15,0,0,0,15-15V275.06A15,15,0,0,0,835,260.05Zm10,118.67a10,10,0,0,1-10,10H688.88a10,10,0,0,1-10-10V295.63l-45.38-30.58H835a10,10,0,0,1,10,10Z"/><path class="cls-3" d="M831.77,741.56h-211l-19.9-35.91-19.08,35.91H547.34a18.09,18.09,0,0,0-18.06,18.07v54.51h-7.5v5h7.5v13.21a18.08,18.08,0,0,0,18.06,18.06H831.77a18.08,18.08,0,0,0,18.06-18.06V759.63A18.09,18.09,0,0,0,831.77,741.56Zm13.06,90.79a13.08,13.08,0,0,1-13.06,13.06H547.34a13.08,13.08,0,0,1-13.06-13.06V759.63a13.08,13.08,0,0,1,13.06-13.07h37.43l16.16-30.42,16.86,30.42h214a13.08,13.08,0,0,1,13.06,13.07Z"/><path class="cls-3" d="M504.35,231.84H538.2l19.9,35.91,19.07-35.91h132a18.08,18.08,0,0,0,18.06-18.06V141.05A18.08,18.08,0,0,0,709.12,123H504.35a18.08,18.08,0,0,0-18.06,18.06v72.73A18.08,18.08,0,0,0,504.35,231.84Zm-13.06-90.79A13.08,13.08,0,0,1,504.35,128H709.12a13.08,13.08,0,0,1,13.06,13.06v72.73a13.08,13.08,0,0,1-13.06,13.06h-135L558,257.27l-16.87-30.43H504.35a13.08,13.08,0,0,1-13.06-13.06Z"/><path class="cls-3" d="M173.8,137.51h168a18.08,18.08,0,0,0,18.06-18.06V77.2h17.68v-5H359.86V18.06A18.08,18.08,0,0,0,341.8,0h-168a18.09,18.09,0,0,0-18.07,18.06V119.45A18.09,18.09,0,0,0,173.8,137.51ZM160.73,18.06A13.08,13.08,0,0,1,173.8,5h168a13.08,13.08,0,0,1,13.06,13.06V119.45a13.08,13.08,0,0,1-13.06,13.06h-168a13.08,13.08,0,0,1-13.07-13.06Z"/><path class="cls-3" d="M26.25,506.63h98.53A26.28,26.28,0,0,0,151,480.38V433.69h16.23v-5H151V381.85a26.27,26.27,0,0,0-26.24-26.24H104V339.19H99v16.42H26.25A26.27,26.27,0,0,0,0,381.85v98.53A26.28,26.28,0,0,0,26.25,506.63ZM5,381.85a21.27,21.27,0,0,1,21.25-21.24h98.53A21.27,21.27,0,0,1,146,381.85v98.53a21.27,21.27,0,0,1-21.24,21.25H26.25A21.27,21.27,0,0,1,5,480.38Z"/><path class="cls-3" d="M672,568.83v98.53a26.28,26.28,0,0,0,26.25,26.25h98.53A26.28,26.28,0,0,0,823,667.36V568.83a26.28,26.28,0,0,0-26.24-26.25H698.25A26.28,26.28,0,0,0,672,568.83Zm26.25-21.25h98.53A21.27,21.27,0,0,1,818,568.83v98.53a21.27,21.27,0,0,1-21.24,21.25H698.25A21.27,21.27,0,0,1,677,667.36V568.83A21.28,21.28,0,0,1,698.25,547.58Z"/><path class="cls-3" d="M204.84,331.68v97H187.25v5h17.59V618.86h168l-5.23,54.67H323.12A26.18,26.18,0,0,0,297,699.68v2.5H552.69v-2.5a26.18,26.18,0,0,0-26.16-26.15H482.09l-5.23-54.67H644.81V481.18h18.26v-5H644.81V331.68A30.88,30.88,0,0,0,614,300.84H432.89v-19h-5v19H235.68A30.88,30.88,0,0,0,204.84,331.68ZM482.57,678.53h44a21.18,21.18,0,0,1,21,18.65H302.11a21.18,21.18,0,0,1,21-18.65h44v.07H482.57Zm-5.51-5H372.59L377.8,619h94.05Zm162.75-59.67h-430V580.23h430ZM614,305.84a25.87,25.87,0,0,1,25.84,25.84V575.23h-430V331.68a25.87,25.87,0,0,1,25.84-25.84Z"/><path class="cls-3" d="M218.82,334.84v232h412V336.35a22.19,22.19,0,0,0-22.16-22.16H239.46A20.67,20.67,0,0,0,218.82,334.84Z"/><path class="cls-3" d="M404.91,599.29h39.83a2.5,2.5,0,0,0,0-5H404.91a2.5,2.5,0,0,0,0,5Z"/><path class="cls-3" d="M100.13,592.36l-51-29.43V621.8Zm-46-20.77,36,20.77-36,20.78Z"/><path class="cls-3" d="M114.25,621.8l51-29.44-51-29.43Zm5-50.21,36,20.77-36,20.78Z"/><path class="cls-3" d="M705,34H642.21V96.82H705Zm-5,57.83H647.21V39H700Z"/><path class="cls-3" d="M788.11,34H725.28V96.82h62.83Zm-5,57.83H730.28V39h52.83Z"/><path class="cls-3" d="M656.84,67.71,687.6,88.52l2.8-4.14L662.63,65.59,689.8,46.4l-2.89-4.09L656.79,63.6a2.5,2.5,0,0,0,.05,4.11Z"/><path class="cls-3" d="M742.71,88.52l30.77-20.81a2.51,2.51,0,0,0,0-4.11L743.4,42.31l-2.89,4.09,27.17,19.19L739.91,84.38Z"/><rect class="cls-3" x="121.51" y="779.11" width="5" height="10"/><path class="cls-3" d="M126.51,806.64h-5v10a2.5,2.5,0,0,0,2.5,2.5h10v-5h-7.5Z"/><rect class="cls-3" x="236.05" y="814.14" width="20.41" height="5"/><rect class="cls-3" x="154.42" y="814.14" width="20.41" height="5"/><rect class="cls-3" x="276.87" y="814.14" width="20.41" height="5"/><rect class="cls-3" x="195.24" y="814.14" width="20.41" height="5"/><rect class="cls-3" x="440.14" y="814.14" width="20.41" height="5"/><rect class="cls-3" x="480.96" y="814.14" width="20.41" height="5"/><rect class="cls-3" x="317.69" y="814.14" width="20.41" height="5"/><rect class="cls-3" x="399.33" y="814.14" width="20.41" height="5"/><rect class="cls-3" x="358.51" y="814.14" width="20.41" height="5"/><rect class="cls-3" x="683.07" y="476.18" width="20" height="5"/><rect class="cls-3" x="752.4" y="450.51" width="5" height="20"/><rect class="cls-3" x="752.4" y="410.51" width="5" height="20"/><rect class="cls-3" x="723.07" y="476.18" width="20" height="5"/><rect class="cls-3" x="99.04" y="299.19" width="5" height="20"/><rect class="cls-3" x="427.89" y="121.83" width="5" height="20"/><rect class="cls-3" x="427.89" y="81.83" width="5" height="20"/><rect class="cls-3" x="427.89" y="201.83" width="5" height="20"/><rect class="cls-3" x="427.89" y="161.83" width="5" height="20"/><rect class="cls-3" x="427.89" y="241.83" width="5" height="20"/><rect class="cls-3" x="397.54" y="72.19" width="20" height="5"/><path class="cls-3" d="M76.37,229.73l28.23,19.1,2.81-4.14L82.17,227.61l24.68-17.44L104,206.08,76.33,225.62a2.48,2.48,0,0,0-1.06,2.06A2.51,2.51,0,0,0,76.37,229.73Z"/><path class="cls-3" d="M183.69,225.62,156,206.08l-2.88,4.09,24.69,17.44-25.24,17.08,2.8,4.14,28.24-19.1a2.51,2.51,0,0,0,0-4.11Z"/><path class="cls-3" d="M48.09,463.6h4.8v-8.48q8.47-.67,12.94-4.8a13.19,13.19,0,0,0,4.46-10.05,11.57,11.57,0,0,0-2.44-7.69,15.55,15.55,0,0,0-6-4.35,64.7,64.7,0,0,0-9-2.81V408a26.43,26.43,0,0,1,12.75,4.2l2.47-6a24.32,24.32,0,0,0-6.94-3.23,32.72,32.72,0,0,0-8.28-1.35V393.1h-4.8v8.55q-8.33.68-12.64,4.8a13.36,13.36,0,0,0-4.31,10.05,11.77,11.77,0,0,0,2.36,7.65,15,15,0,0,0,5.85,4.42,55.67,55.67,0,0,0,8.74,2.78v17.4a28.7,28.7,0,0,1-8.63-1.92,21.5,21.5,0,0,1-6.82-4.08l-2.78,5.85a22.78,22.78,0,0,0,7.84,4.46,36.66,36.66,0,0,0,10.39,2.06Zm4.8-31.05a25.49,25.49,0,0,1,7.46,3.11,5.74,5.74,0,0,1,2.59,5.06,6.73,6.73,0,0,1-2.52,5.36q-2.51,2.15-7.53,2.59ZM41,421.22a5.85,5.85,0,0,1-2.47-5,7,7,0,0,1,2.4-5.37q2.4-2.2,7.2-2.81v16.2A21.32,21.32,0,0,1,41,421.22Z"/><path class="cls-3" d="M99,464.12V458.2H97.14q-5.55,0-5.55-5.85V435.92a8.94,8.94,0,0,0-1-4.65A5.4,5.4,0,0,0,87.46,429a5.4,5.4,0,0,0,3.15-2.25,8.94,8.94,0,0,0,1-4.65V405.7q0-5.85,5.55-5.85H99v-5.93h-3.3q-5.62,0-8.47,2.81T84.39,405v17.25Q84.39,426,81,426H78.39v6H81q3.38,0,3.38,3.75V453q0,5.48,2.85,8.29t8.47,2.81Z"/><path class="cls-3" d="M103.36,393.92v5.93h1.8q5.7,0,5.7,5.85v16.42a9.18,9.18,0,0,0,.94,4.69,5.29,5.29,0,0,0,3.11,2.21,5.29,5.29,0,0,0-3.11,2.21,9.18,9.18,0,0,0-.94,4.69v16.43q0,5.85-5.7,5.85h-1.8v5.92h3.3q5.63,0,8.51-2.81t2.89-8.29V435.77q0-3.75,3.3-3.75h2.55v-6h-2.55q-3.3,0-3.3-3.75V405q0-5.47-2.89-8.29t-8.51-2.81Z"/><path class="cls-3" d="M204.15,53.71a21.42,21.42,0,0,1,10.58-2.62,19.56,19.56,0,0,1,14.77,6.22l4.88-4.72a23.06,23.06,0,0,0-8.71-6.12,29.84,29.84,0,0,0-11.25-2.06,29.14,29.14,0,0,0-14.25,3.49,25.51,25.51,0,0,0-10,9.6,26.58,26.58,0,0,0-3.6,13.76A26.58,26.58,0,0,0,190.2,85a25.56,25.56,0,0,0,9.94,9.6,28.91,28.91,0,0,0,14.21,3.49A29.59,29.59,0,0,0,225.64,96a23.38,23.38,0,0,0,8.74-6.15l-4.88-4.72a19.59,19.59,0,0,1-14.77,6.3,21.43,21.43,0,0,1-10.58-2.63,19,19,0,0,1-7.39-7.24,21.31,21.31,0,0,1,0-20.62A19,19,0,0,1,204.15,53.71Z"/><path class="cls-3" d="M271.73,71a73.42,73.42,0,0,0-9.53-2.85,68.81,68.81,0,0,1-7.24-2,12.51,12.51,0,0,1-4.46-2.62,5.75,5.75,0,0,1-1.8-4.39,7.11,7.11,0,0,1,3.19-6q3.18-2.32,9.56-2.32a26.48,26.48,0,0,1,7.35,1.08,27.33,27.33,0,0,1,7.05,3.19l2.48-6a24.37,24.37,0,0,0-7.73-3.45,35.36,35.36,0,0,0-9.15-1.2,27.2,27.2,0,0,0-11.17,2,15.25,15.25,0,0,0-6.72,5.4,13.54,13.54,0,0,0-2.21,7.57,11.71,11.71,0,0,0,2.59,8,15.85,15.85,0,0,0,6.22,4.39,75.78,75.78,0,0,0,9.57,2.85c3.15.75,5.58,1.42,7.31,2a11.8,11.8,0,0,1,4.35,2.59,5.81,5.81,0,0,1,1.76,4.39,6.8,6.8,0,0,1-3.22,5.88q-3.23,2.22-9.75,2.22a28.36,28.36,0,0,1-9.64-1.69,23,23,0,0,1-7.69-4.39l-2.77,5.85a23.36,23.36,0,0,0,8.66,4.76,35.79,35.79,0,0,0,11.44,1.84,28.14,28.14,0,0,0,11.25-2,15,15,0,0,0,6.82-5.4,13.37,13.37,0,0,0,2.25-7.53,11.45,11.45,0,0,0-2.59-7.88A16,16,0,0,0,271.73,71Z"/><path class="cls-3" d="M318.3,71a73.69,73.69,0,0,0-9.52-2.85,67.45,67.45,0,0,1-7.24-2,12.42,12.42,0,0,1-4.46-2.62,5.75,5.75,0,0,1-1.8-4.39,7.13,7.13,0,0,1,3.18-6c2.13-1.55,5.31-2.32,9.57-2.32a26.59,26.59,0,0,1,7.35,1.08,27.26,27.26,0,0,1,7,3.19l2.48-6a24.37,24.37,0,0,0-7.73-3.45,35.29,35.29,0,0,0-9.14-1.2,27.22,27.22,0,0,0-11.18,2,15.16,15.16,0,0,0-6.71,5.4,13.47,13.47,0,0,0-2.22,7.57,11.76,11.76,0,0,0,2.59,8,15.88,15.88,0,0,0,6.23,4.39,75.05,75.05,0,0,0,9.56,2.85q4.72,1.13,7.31,2A11.64,11.64,0,0,1,318,79.25a5.78,5.78,0,0,1,1.76,4.39,6.8,6.8,0,0,1-3.22,5.88q-3.22,2.22-9.75,2.22a28.4,28.4,0,0,1-9.64-1.69,23.13,23.13,0,0,1-7.69-4.39l-2.77,5.85a23.44,23.44,0,0,0,8.66,4.76,35.83,35.83,0,0,0,11.44,1.84,28.14,28.14,0,0,0,11.25-2,15,15,0,0,0,6.83-5.4,13.37,13.37,0,0,0,2.25-7.53,11.5,11.5,0,0,0-2.59-7.88A16.08,16.08,0,0,0,318.3,71Z"/><path class="cls-3" d="M604.29,181.55l-6.45-1.8a29.65,29.65,0,0,1-3.09,8.42l-11.44-10.92a25.31,25.31,0,0,0,7.82-5.93,10.58,10.58,0,0,0,2.41-6.8,9.42,9.42,0,0,0-3.52-7.69,14.23,14.23,0,0,0-9.29-2.88q-6.29,0-10.06,3.13a10.17,10.17,0,0,0-3.79,8.22,11.58,11.58,0,0,0,1.25,5.24,24.25,24.25,0,0,0,4.17,5.59q-6,3.27-8.69,6.75a12.43,12.43,0,0,0-2.66,7.7,11.33,11.33,0,0,0,2.32,7,15.08,15.08,0,0,0,6.45,4.81,25.14,25.14,0,0,0,25.46-4.3l6.45,6.2,4.47-5.16-6.45-6.2A35.14,35.14,0,0,0,604.29,181.55Zm-28.38-20.21a7.31,7.31,0,0,1,4.9-1.55,6.53,6.53,0,0,1,4.43,1.38,4.55,4.55,0,0,1,1.59,3.61,5.42,5.42,0,0,1-1.8,3.87,28.43,28.43,0,0,1-6.28,4.22,27.25,27.25,0,0,1-3.7-4.3,6.34,6.34,0,0,1-.94-3.36A4.89,4.89,0,0,1,575.91,161.34Zm3.44,36.38a13,13,0,0,1-7.82-2.11,6.37,6.37,0,0,1-2.93-5.37,7.44,7.44,0,0,1,1.85-5,24.72,24.72,0,0,1,6.41-4.73l13.59,13.07A16.17,16.17,0,0,1,579.35,197.72Z"/><path class="cls-3" d="M618.74,202.36a25.14,25.14,0,0,0,25.46-4.3l6.45,6.2,4.47-5.16-6.45-6.2a35.14,35.14,0,0,0,4.64-11.35l-6.45-1.8a29.65,29.65,0,0,1-3.09,8.42l-11.44-10.92a25.31,25.31,0,0,0,7.82-5.93,10.58,10.58,0,0,0,2.41-6.8,9.42,9.42,0,0,0-3.52-7.69,14.25,14.25,0,0,0-9.29-2.88q-6.29,0-10.06,3.13a10.17,10.17,0,0,0-3.79,8.22,11.58,11.58,0,0,0,1.25,5.24,24.25,24.25,0,0,0,4.17,5.59q-6,3.27-8.69,6.75a12.43,12.43,0,0,0-2.66,7.7,11.33,11.33,0,0,0,2.32,7A15.08,15.08,0,0,0,618.74,202.36Zm6.19-41a7.31,7.31,0,0,1,4.9-1.55,6.53,6.53,0,0,1,4.43,1.38,4.55,4.55,0,0,1,1.59,3.61,5.42,5.42,0,0,1-1.8,3.87,28.43,28.43,0,0,1-6.28,4.22,26.71,26.71,0,0,1-3.7-4.3,6.34,6.34,0,0,1-.94-3.36A4.89,4.89,0,0,1,624.93,161.34Zm-5.46,23.91a24.72,24.72,0,0,1,6.41-4.73l13.59,13.07a16.17,16.17,0,0,1-11.1,4.13,13,13,0,0,1-7.82-2.11,6.37,6.37,0,0,1-2.93-5.37A7.44,7.44,0,0,1,619.47,185.25Z"/><polygon class="cls-3" points="138.8 249.77 121.61 200.7 117.07 200.7 134.26 249.77 138.8 249.77"/><path class="cls-3" d="M721.71,355a22.5,22.5,0,0,0,10.06,2.28q9.29,0,14.06-5t4.77-15V296.34H720.33v7.49h21.76v33.8q0,6-2.62,9.11c-1.75,2.06-4.32,3.1-7.7,3.1q-7.57,0-12.56-7.14l-5,5.85A19,19,0,0,0,721.71,355Z"/><path class="cls-3" d="M806,331.09a18.33,18.33,0,0,0-7.1-5A83.86,83.86,0,0,0,788,322.83a79.29,79.29,0,0,1-8.3-2.28,14.19,14.19,0,0,1-5.11-3,6.56,6.56,0,0,1-2.07-5,8.17,8.17,0,0,1,3.66-6.88q3.64-2.65,11-2.66a30.2,30.2,0,0,1,8.43,1.24,31.38,31.38,0,0,1,8.09,3.66L806.5,301a27.93,27.93,0,0,0-8.86-4,40.76,40.76,0,0,0-10.49-1.37A31.18,31.18,0,0,0,774.34,298a17.44,17.44,0,0,0-7.7,6.19,15.52,15.52,0,0,0-2.54,8.69q0,5.76,3,9.16a18.21,18.21,0,0,0,7.14,5,85.26,85.26,0,0,0,11,3.26c3.62.86,6.41,1.64,8.39,2.33a13.54,13.54,0,0,1,5,3,6.68,6.68,0,0,1,2,5,7.85,7.85,0,0,1-3.7,6.76q-3.69,2.53-11.18,2.53A32.38,32.38,0,0,1,774.64,348a26.39,26.39,0,0,1-8.81-5l-3.19,6.71a27.1,27.1,0,0,0,9.94,5.46,41.27,41.27,0,0,0,13.11,2.1,32.38,32.38,0,0,0,12.9-2.28,17.21,17.21,0,0,0,7.83-6.19,15.37,15.37,0,0,0,2.58-8.64C809,336.33,808,333.33,806,331.09Z"/><path class="cls-3" d="M601.5,782.36q-4.29-3.57-11.77-3.57h-15v38.5h5.5V805.63h9.52q7.47,0,11.77-3.58a13.44,13.44,0,0,0,0-19.69Zm-4,16.26q-2.76,2.22-8,2.22h-9.35V783.57h9.35c3.48,0,6.14.75,8,2.23a8.85,8.85,0,0,1,0,12.82Z"/><polygon class="cls-3" points="643.46 778.79 638.46 778.79 626.08 799.08 613.76 778.79 607.88 778.79 623.16 803.87 623.16 817.29 628.61 817.29 628.61 803.98 643.46 779.51 643.46 783.57 656.66 783.57 656.66 817.29 662.11 817.29 662.11 783.57 675.31 783.57 675.31 778.79 643.9 778.79 643.46 778.79"/><polygon class="cls-3" points="708.91 795.34 686.8 795.34 686.8 778.79 681.3 778.79 681.3 817.29 686.8 817.29 686.8 800.13 708.91 800.13 708.91 817.29 714.41 817.29 714.41 778.79 708.91 778.79 708.91 795.34"/><path class="cls-3" d="M753.79,780.91a22.73,22.73,0,0,0-21,0,19,19,0,0,0-7.34,7.06,20.37,20.37,0,0,0,0,20.13,18.9,18.9,0,0,0,7.34,7.07,22.73,22.73,0,0,0,21,0,18.68,18.68,0,0,0,7.31-7,20.53,20.53,0,0,0,0-20.18A18.68,18.68,0,0,0,753.79,780.91Zm2.5,24.69a14.08,14.08,0,0,1-5.33,5.31,15.19,15.19,0,0,1-7.62,1.92,15.46,15.46,0,0,1-7.67-1.92,14,14,0,0,1-5.39-5.31,15.63,15.63,0,0,1,0-15.12,14,14,0,0,1,5.39-5.31,15.46,15.46,0,0,1,7.67-1.93,15.19,15.19,0,0,1,7.62,1.93,14.08,14.08,0,0,1,5.33,5.31,15.56,15.56,0,0,1,0,15.12Z"/><polygon class="cls-3" points="799.77 807.5 776.67 778.79 772.16 778.79 772.16 817.29 777.66 817.29 777.66 788.58 800.76 817.29 805.27 817.29 805.27 778.79 799.77 778.79 799.77 807.5"/><polygon class="cls-3" points="74.11 703.07 47.98 703.07 47.98 683.51 41.48 683.51 41.48 729.01 47.98 729.01 47.98 708.73 74.11 708.73 74.11 729.01 80.61 729.01 80.61 683.51 74.11 683.51 74.11 703.07"/><polygon class="cls-3" points="87.7 689.16 103.3 689.16 103.3 729.01 109.73 729.01 109.73 689.16 125.33 689.16 125.33 683.51 87.7 683.51 87.7 689.16"/><polygon class="cls-3" points="175.45 683.51 156.73 715.49 137.75 683.51 132.42 683.51 132.42 729.01 138.66 729.01 138.66 696.05 155.1 723.48 158.09 723.48 174.54 695.86 174.6 729.01 180.84 729.01 180.78 683.51 175.45 683.51"/><polygon class="cls-3" points="200.99 683.51 194.49 683.51 194.49 729.01 225.63 729.01 225.63 723.35 200.99 723.35 200.99 683.51"/><path class="cls-3" d="M724.19,653.91h7.1l2.2-18h18.9l-2.2,18h7.1l2.2-18h14.8v-7.3h-13.9l2.4-19.4h14.7v-7.3h-13.8l2.2-18h-7.1l-2.2,18h-18.8l2.2-18h-7.1l-2.2,18h-14.9v7.3h14l-2.5,19.4h-14.7v7.3h13.8Zm12.7-44.7h18.8l-2.4,19.4h-18.9Z"/></g></g></svg>