<svg xmlns="http://www.w3.org/2000/svg" viewBox="0 0 849.98 850.42"><defs><style>.cls-1{fill:#b78a43;}.cls-2{fill:#fff;}.cls-3{fill:#231f20;}</style></defs><title>p2_v2</title><g id="Layer_2" data-name="Layer 2"><g id="readyready"><g id="p2"><path class="cls-1" d="M831.77,744.06H619.27l-18.39-33.17-17.61,33.17H547.34a15.56,15.56,0,0,0-15.56,15.57v72.72a15.56,15.56,0,0,0,15.56,15.57H831.77a15.57,15.57,0,0,0,15.56-15.57V759.63A15.57,15.57,0,0,0,831.77,744.06Z"/><path class="cls-1" d="M558.05,262.51l17.62-33.17H798a15.56,15.56,0,0,0,15.56-15.56V141.05A15.56,15.56,0,0,0,798,125.49H504.35a15.56,15.56,0,0,0-15.56,15.56v72.73a15.56,15.56,0,0,0,15.56,15.56h35.32Z"/><rect class="cls-1" x="2.5" y="358.11" width="146.02" height="146.02" rx="23.74"/><path class="cls-2" d="M60.33,269.64h201l-51.06-34.41v-40.4a12.52,12.52,0,0,0-12.51-12.51H60.33a12.51,12.51,0,0,0-12.51,12.51v62.3A12.51,12.51,0,0,0,60.33,269.64Z"/><path class="cls-2" d="M2.82,659.32v91.4a12.51,12.51,0,0,0,12.51,12.51H250.69a12.51,12.51,0,0,0,12.51-12.51V681.21l51.07-34.4H15.33A12.51,12.51,0,0,0,2.82,659.32Z"/><path class="cls-2" d="M835,262.55H625.31L676.37,297v81.76a12.51,12.51,0,0,0,12.51,12.51H835a12.51,12.51,0,0,0,12.51-12.51V275.06A12.51,12.51,0,0,0,835,262.55Z"/><path class="cls-2" d="M341.8,2.5H169.71a15.56,15.56,0,0,0-15.56,15.56V119.45A15.56,15.56,0,0,0,169.71,135H341.8a15.56,15.56,0,0,0,15.56-15.56V18.06A15.56,15.56,0,0,0,341.8,2.5Z"/><rect class="cls-2" x="674.5" y="545.09" width="146.02" height="146.02" rx="23.74"/><path class="cls-3" d="M204.84,331.68v97H187.25v5h17.59V618.86h168l-5.23,54.67H323.12A26.18,26.18,0,0,0,297,699.68v2.5H552.69v-2.5a26.18,26.18,0,0,0-26.16-26.15H482.09l-5.23-54.67H644.81V481.18h18.26v-5H644.81V331.68A30.88,30.88,0,0,0,614,300.84H432.89v-19h-5v19H235.68A30.88,30.88,0,0,0,204.84,331.68ZM482.57,678.53h44a21.18,21.18,0,0,1,21,18.65H302.11a21.18,21.18,0,0,1,21-18.65h44v.07H482.57Zm-5.51-5H372.59L377.8,619h94.05Zm162.75-59.67h-430V580.23h430ZM614,305.84a25.87,25.87,0,0,1,25.84,25.84V575.23h-430V331.68a25.87,25.87,0,0,1,25.84-25.84Z"/><path class="cls-3" d="M218.82,334.84v232h412V336.35a22.18,22.18,0,0,0-22.16-22.15H239.46A20.66,20.66,0,0,0,218.82,334.84Z"/><path class="cls-3" d="M404.91,599.29h39.83a2.5,2.5,0,0,0,0-5H404.91a2.5,2.5,0,0,0,0,5Z"/><path class="cls-3" d="M60.33,272.14H99v7.05h5v-7.05H269.51L212.77,233.9V194.83a15,15,0,0,0-15-15H60.33a15,15,0,0,0-15,15v62.3A15,15,0,0,0,60.33,272.14Zm-10-77.31a10,10,0,0,1,10-10H197.76a10,10,0,0,1,10,10v41.73l45.38,30.58H60.33a10,10,0,0,1-10-10Z"/><path class="cls-3" d="M15.33,644.31a15,15,0,0,0-15,15v91.4a15,15,0,0,0,15,15H250.69a15,15,0,0,0,15-15V682.54l56.75-38.23ZM260.7,679.88v70.84a10,10,0,0,1-10,10H15.33a10,10,0,0,1-10-10v-91.4a10,10,0,0,1,10-10H306.08Z"/><path class="cls-3" d="M835,260.05H617.12l56.75,38.24v80.43a15,15,0,0,0,15,15H835a15,15,0,0,0,15-15V275.06A15,15,0,0,0,835,260.05Zm10,118.67a10,10,0,0,1-10,10H688.88a10,10,0,0,1-10-10V295.63l-45.38-30.58H835a10,10,0,0,1,10,10Z"/><path class="cls-3" d="M831.77,741.56h-211l-19.9-35.91-19.08,35.91H547.34a18.09,18.09,0,0,0-18.06,18.07v54.51h-7.5v5h7.5v13.21a18.09,18.09,0,0,0,18.06,18.07H831.77a18.09,18.09,0,0,0,18.06-18.07V759.63A18.09,18.09,0,0,0,831.77,741.56Zm13.06,90.79a13.09,13.09,0,0,1-13.06,13.07H547.34a13.09,13.09,0,0,1-13.06-13.07V759.63a13.08,13.08,0,0,1,13.06-13.07h37.43l16.16-30.42,16.86,30.42h214a13.08,13.08,0,0,1,13.06,13.07Z"/><path class="cls-3" d="M504.35,231.84H538.2l19.9,35.91,19.07-35.91H798A18.08,18.08,0,0,0,816,213.78V141.05A18.08,18.08,0,0,0,798,123H504.35a18.08,18.08,0,0,0-18.06,18.06v72.73A18.08,18.08,0,0,0,504.35,231.84Zm-13.06-90.79A13.08,13.08,0,0,1,504.35,128H798A13.08,13.08,0,0,1,811,141.05v72.73A13.08,13.08,0,0,1,798,226.84H574.17L558,257.27l-16.87-30.43H504.35a13.08,13.08,0,0,1-13.06-13.06Z"/><path class="cls-3" d="M169.71,137.51H341.8a18.08,18.08,0,0,0,18.06-18.06V77.2h17.68v-5H359.86V18.06A18.08,18.08,0,0,0,341.8,0H169.71a18.08,18.08,0,0,0-18.06,18.06V119.45A18.08,18.08,0,0,0,169.71,137.51ZM156.65,18.06A13.08,13.08,0,0,1,169.71,5H341.8a13.08,13.08,0,0,1,13.06,13.06V119.45a13.08,13.08,0,0,1-13.06,13.06H169.71a13.08,13.08,0,0,1-13.06-13.06Z"/><path class="cls-3" d="M26.25,506.63h98.53A26.28,26.28,0,0,0,151,480.38V433.69h16.23v-5H151V381.85a26.27,26.27,0,0,0-26.24-26.24H104V339.19H99v16.42H26.25A26.27,26.27,0,0,0,0,381.85v98.53A26.28,26.28,0,0,0,26.25,506.63ZM5,381.85a21.27,21.27,0,0,1,21.25-21.24h98.53A21.27,21.27,0,0,1,146,381.85v98.53a21.27,21.27,0,0,1-21.24,21.25H26.25A21.27,21.27,0,0,1,5,480.38Z"/><path class="cls-3" d="M672,568.83v98.53a26.28,26.28,0,0,0,26.25,26.25h98.53A26.28,26.28,0,0,0,823,667.36V568.83a26.28,26.28,0,0,0-26.24-26.25H698.25A26.28,26.28,0,0,0,672,568.83Zm26.25-21.25h98.53A21.27,21.27,0,0,1,818,568.83v98.53a21.27,21.27,0,0,1-21.24,21.25H698.25A21.27,21.27,0,0,1,677,667.36V568.83A21.28,21.28,0,0,1,698.25,547.58Z"/><path class="cls-3" d="M100.13,592.36l-51-29.43V621.8Zm-46-20.77,36,20.77-36,20.78Z"/><path class="cls-3" d="M114.25,621.8l51-29.44-51-29.43Zm5-50.21,36,20.77-36,20.78Z"/><path class="cls-3" d="M705,34H642.21V96.82H705Zm-5,57.83H647.21V39H700Z"/><path class="cls-3" d="M788.11,34H725.28V96.82h62.83Zm-5,57.83H730.28V39h52.83Z"/><path class="cls-3" d="M656.84,67.71,687.6,88.53l2.8-4.15L662.63,65.6,689.8,46.4l-2.89-4.09L656.79,63.6a2.5,2.5,0,0,0,.05,4.11Z"/><path class="cls-3" d="M742.71,88.53l30.77-20.82a2.46,2.46,0,0,0,1.09-2,2.49,2.49,0,0,0-1.05-2.07L743.4,42.31l-2.89,4.09,27.17,19.2L739.91,84.38Z"/><path class="cls-3" d="M76.37,229.73l28.23,19.1,2.81-4.14L82.17,227.61l24.68-17.44L104,206.08,76.33,225.62a2.5,2.5,0,0,0,0,4.11Z"/><path class="cls-3" d="M155.41,248.83l28.23-19.1a2.5,2.5,0,0,0,.05-4.11l-27.64-19.54-2.89,4.09,24.69,17.44-25.24,17.08Z"/><rect class="cls-3" x="121.51" y="779.11" width="5" height="10"/><path class="cls-3" d="M126.51,806.64h-5v10a2.5,2.5,0,0,0,2.5,2.5h10v-5h-7.5Z"/><rect class="cls-3" x="236.05" y="814.14" width="20.41" height="5"/><rect class="cls-3" x="480.96" y="814.14" width="20.41" height="5"/><rect class="cls-3" x="440.14" y="814.14" width="20.41" height="5"/><rect class="cls-3" x="154.42" y="814.14" width="20.41" height="5"/><rect class="cls-3" x="276.87" y="814.14" width="20.41" height="5"/><rect class="cls-3" x="317.69" y="814.14" width="20.41" height="5"/><rect class="cls-3" x="399.33" y="814.14" width="20.41" height="5"/><rect class="cls-3" x="358.51" y="814.14" width="20.41" height="5"/><rect class="cls-3" x="195.24" y="814.14" width="20.41" height="5"/><rect class="cls-3" x="752.4" y="450.51" width="5" height="20"/><rect class="cls-3" x="752.4" y="410.51" width="5" height="20"/><rect class="cls-3" x="683.07" y="476.18" width="20" height="5"/><rect class="cls-3" x="723.07" y="476.18" width="20" height="5"/><rect class="cls-3" x="99.04" y="299.19" width="5" height="20"/><rect class="cls-3" x="427.89" y="241.83" width="5" height="20"/><rect class="cls-3" x="397.54" y="72.19" width="20" height="5"/><rect class="cls-3" x="427.89" y="201.83" width="5" height="20"/><rect class="cls-3" x="427.89" y="81.83" width="5" height="20"/><rect class="cls-3" x="427.89" y="161.83" width="5" height="20"/><rect class="cls-3" x="427.89" y="121.83" width="5" height="20"/><path class="cls-3" d="M39.46,446.83a21.5,21.5,0,0,1-6.82-4.08l-2.78,5.85a22.78,22.78,0,0,0,7.84,4.46,36.66,36.66,0,0,0,10.39,2.06v8.48h4.8v-8.48q8.47-.67,12.94-4.8a13.19,13.19,0,0,0,4.46-10.05,11.57,11.57,0,0,0-2.44-7.69,15.55,15.55,0,0,0-6-4.35,64.7,64.7,0,0,0-9-2.81V408a26.43,26.43,0,0,1,12.75,4.2l2.47-6a24.39,24.39,0,0,0-6.93-3.23,32.88,32.88,0,0,0-8.29-1.35V393.1h-4.8v8.55q-8.33.68-12.64,4.8a13.36,13.36,0,0,0-4.31,10.05,11.83,11.83,0,0,0,2.36,7.65,15.11,15.11,0,0,0,5.85,4.42,56,56,0,0,0,8.74,2.78v17.4A28.7,28.7,0,0,1,39.46,446.83Zm13.43-14.28a25.49,25.49,0,0,1,7.46,3.11,5.74,5.74,0,0,1,2.59,5.06,6.75,6.75,0,0,1-2.51,5.36q-2.52,2.15-7.54,2.59ZM41,421.22a5.85,5.85,0,0,1-2.47-5,7,7,0,0,1,2.4-5.37q2.4-2.2,7.2-2.81v16.2A21.32,21.32,0,0,1,41,421.22Z"/><path class="cls-3" d="M84.39,435.77V453q0,5.48,2.85,8.29t8.47,2.81H99V458.2H97.14q-5.55,0-5.55-5.85V435.92a8.94,8.94,0,0,0-1-4.65A5.4,5.4,0,0,0,87.46,429a5.4,5.4,0,0,0,3.15-2.25,8.94,8.94,0,0,0,1-4.65V405.7q0-5.85,5.55-5.85H99v-5.93h-3.3q-5.62,0-8.47,2.81T84.39,405v17.25Q84.39,426,81,426H78.39v6H81Q84.39,432,84.39,435.77Z"/><path class="cls-3" d="M115.17,461.31q2.89-2.82,2.89-8.29V435.77q0-3.75,3.3-3.75h2.55v-6h-2.55q-3.3,0-3.3-3.75V405q0-5.47-2.89-8.29t-8.51-2.81h-3.3v5.93h1.8q5.7,0,5.7,5.85v16.42a9.18,9.18,0,0,0,.94,4.69,5.29,5.29,0,0,0,3.11,2.21,5.29,5.29,0,0,0-3.11,2.21,9.18,9.18,0,0,0-.94,4.69v16.43q0,5.85-5.7,5.85h-1.8v5.92h3.3Q112.29,464.12,115.17,461.31Z"/><polygon class="cls-3" points="525.22 165.36 538.63 187.72 541.07 187.72 554.47 165.2 554.53 192.23 559.61 192.23 559.56 155.13 555.22 155.13 539.95 181.21 524.48 155.13 520.13 155.13 520.13 192.23 525.22 192.23 525.22 165.36"/><path class="cls-3" d="M574.51,190.69a16.09,16.09,0,0,0,15,0,13.51,13.51,0,0,0,5.2-5.11,15.48,15.48,0,0,0,0-14.79,13.39,13.39,0,0,0-5.2-5.09,16.32,16.32,0,0,0-15,0,13.24,13.24,0,0,0-5.22,5.09,15.41,15.41,0,0,0,0,14.79A13.36,13.36,0,0,0,574.51,190.69ZM573.79,173a8.87,8.87,0,0,1,3.39-3.48,10.33,10.33,0,0,1,9.7,0,8.75,8.75,0,0,1,3.37,3.48,11.54,11.54,0,0,1,0,10.33,8.87,8.87,0,0,1-3.37,3.5,10,10,0,0,1-9.7,0,9,9,0,0,1-3.39-3.5,11.38,11.38,0,0,1,0-10.33Z"/><path class="cls-3" d="M608.74,177.76q0-4.5,2.39-6.92a8.78,8.78,0,0,1,6.52-2.41,7.38,7.38,0,0,1,5.62,2.07c1.3,1.38,2,3.43,2,6.15v15.58h5.09V176.06q0-6-3.16-9.09a11.63,11.63,0,0,0-8.5-3.1,14.52,14.52,0,0,0-6,1.17,9.93,9.93,0,0,0-4.16,3.34v-4.24h-4.87v28.09h5.08Z"/><path class="cls-3" d="M644.28,189.34a15.32,15.32,0,0,0,7.29,1.72,14.84,14.84,0,0,0,5.7-1.08,11.34,11.34,0,0,0,4.42-3.26v2.22q0,4.77-2.36,7.11T652,198.38a18.57,18.57,0,0,1-6-1,14.6,14.6,0,0,1-4.85-2.68l-2.44,3.92a14.89,14.89,0,0,0,5.84,3.1,25.85,25.85,0,0,0,7.57,1.09q7.26,0,10.92-3.53c2.44-2.34,3.66-6,3.66-10.89V164.14H662v4.35a11,11,0,0,0-4.48-3.45,14.84,14.84,0,0,0-5.91-1.17,15.55,15.55,0,0,0-7.29,1.7,12.58,12.58,0,0,0-5.11,4.8,14.39,14.39,0,0,0,0,14.15A12.83,12.83,0,0,0,644.28,189.34Zm.87-18.5a9.91,9.91,0,0,1,7-2.51,9.8,9.8,0,0,1,6.94,2.51,8.58,8.58,0,0,1,2.71,6.6,9.13,9.13,0,0,1-1.25,4.75,8.71,8.71,0,0,1-3.44,3.26,10.52,10.52,0,0,1-5,1.16,10.64,10.64,0,0,1-5-1.16,8.71,8.71,0,0,1-3.44-3.26,9.13,9.13,0,0,1-1.25-4.75A8.61,8.61,0,0,1,645.15,170.84Z"/><path class="cls-3" d="M681,190.69a15.23,15.23,0,0,0,7.53,1.86,15.06,15.06,0,0,0,7.5-1.86,13.41,13.41,0,0,0,5.19-5.11,15.48,15.48,0,0,0,0-14.79A13.3,13.3,0,0,0,696,165.7a15.26,15.26,0,0,0-7.5-1.83A15.43,15.43,0,0,0,681,165.7a13.37,13.37,0,0,0-5.22,5.09,15.48,15.48,0,0,0,0,14.79A13.49,13.49,0,0,0,681,190.69ZM680.27,173a8.87,8.87,0,0,1,3.39-3.48,10.33,10.33,0,0,1,9.7,0,8.66,8.66,0,0,1,3.36,3.48,11.54,11.54,0,0,1,0,10.33,8.78,8.78,0,0,1-3.36,3.5,10,10,0,0,1-9.7,0,9,9,0,0,1-3.39-3.5,11.3,11.3,0,0,1,0-10.33Z"/><path class="cls-3" d="M737,189.9a17.19,17.19,0,0,0,7.08-6.55A19.88,19.88,0,0,0,744,164a17.19,17.19,0,0,0-7.08-6.55,22.67,22.67,0,0,0-10.44-2.33H710.87v37.1h15.64A22.67,22.67,0,0,0,737,189.9Zm-20.78-2.28V159.74h10a17.08,17.08,0,0,1,7.92,1.75,12.71,12.71,0,0,1,5.28,4.9,15.29,15.29,0,0,1,0,14.58,12.71,12.71,0,0,1-5.28,4.9,17.08,17.08,0,0,1-7.92,1.75Z"/><path class="cls-3" d="M758.79,187.78a11,11,0,0,0,4.29,3.55,13.33,13.33,0,0,0,5.72,1.22,14.82,14.82,0,0,0,7.32-1.8,13,13,0,0,0,5.06-5.07,16.22,16.22,0,0,0,0-15,13,13,0,0,0-5.06-5,14.82,14.82,0,0,0-7.32-1.81,13.42,13.42,0,0,0-5.56,1.14,10.82,10.82,0,0,0-4.24,3.37V152.9h-5.09v39.33h4.88ZM760.16,173a8.7,8.7,0,0,1,3.4-3.48,10.26,10.26,0,0,1,9.67,0,8.87,8.87,0,0,1,3.39,3.48,11.3,11.3,0,0,1,0,10.33,9,9,0,0,1-3.39,3.5,10,10,0,0,1-9.67,0,8.81,8.81,0,0,1-3.4-3.5,11.54,11.54,0,0,1,0-10.33Z"/><polygon class="cls-3" points="138.8 249.78 121.61 200.71 117.07 200.71 134.26 249.78 138.8 249.78"/><path class="cls-3" d="M756.74,332l-7.13-2a32.91,32.91,0,0,1-3.42,9.31l-12.64-12.06q6-3.22,8.65-6.56a11.69,11.69,0,0,0,2.66-7.5,10.4,10.4,0,0,0-3.9-8.5q-3.88-3.18-10.25-3.19-6.94,0-11.12,3.47a11.21,11.21,0,0,0-4.18,9.07,12.79,12.79,0,0,0,1.38,5.8A26.63,26.63,0,0,0,721.4,326q-6.66,3.61-9.6,7.46a13.7,13.7,0,0,0-2.95,8.5,12.52,12.52,0,0,0,2.57,7.7,16.68,16.68,0,0,0,7.12,5.32,27.78,27.78,0,0,0,28.13-4.75l7.12,6.84,4.94-5.7-7.13-6.84A39,39,0,0,0,756.74,332ZM725.38,309.7A8.06,8.06,0,0,1,730.8,308a7.25,7.25,0,0,1,4.89,1.52,5,5,0,0,1,1.76,4,6,6,0,0,1-2,4.28,31.3,31.3,0,0,1-6.94,4.65,29.27,29.27,0,0,1-4.09-4.75,7,7,0,0,1-1-3.7A5.41,5.41,0,0,1,725.38,309.7Zm3.8,40.19a14.5,14.5,0,0,1-8.64-2.33,7.05,7.05,0,0,1-3.23-5.94,8.21,8.21,0,0,1,2-5.51,27.28,27.28,0,0,1,7.08-5.22l15,14.44A17.83,17.83,0,0,1,729.18,349.89Z"/><path class="cls-3" d="M810.88,332l-7.12-2a32.91,32.91,0,0,1-3.42,9.31L787.7,327.28q6-3.22,8.65-6.56a11.69,11.69,0,0,0,2.66-7.5,10.4,10.4,0,0,0-3.9-8.5q-3.89-3.18-10.26-3.19-6.93,0-11.11,3.47a11.21,11.21,0,0,0-4.18,9.07,12.79,12.79,0,0,0,1.38,5.8,26.84,26.84,0,0,0,4.6,6.17q-6.64,3.61-9.59,7.46a13.7,13.7,0,0,0-3,8.5,12.52,12.52,0,0,0,2.57,7.7,16.68,16.68,0,0,0,7.12,5.32,27.76,27.76,0,0,0,28.12-4.75l7.13,6.84,4.94-5.7-7.13-6.84A38.81,38.81,0,0,0,810.88,332ZM779.53,309.7A8.06,8.06,0,0,1,785,308a7.25,7.25,0,0,1,4.89,1.52,5,5,0,0,1,1.76,4,6,6,0,0,1-2,4.28,31.19,31.19,0,0,1-6.93,4.65,28.58,28.58,0,0,1-4.08-4.75,6.93,6.93,0,0,1-1.05-3.7A5.41,5.41,0,0,1,779.53,309.7Zm3.81,40.19a14.49,14.49,0,0,1-8.65-2.33,7.05,7.05,0,0,1-3.23-5.94,8.21,8.21,0,0,1,2-5.51,27.28,27.28,0,0,1,7.08-5.22l15,14.44A17.81,17.81,0,0,1,783.34,349.89Z"/><polygon class="cls-3" points="564.66 796.64 578.7 796.64 578.7 793.24 564.66 793.24 564.66 784.64 580.42 784.64 580.42 781.16 560.66 781.16 560.66 809.16 580.98 809.16 580.98 805.68 564.66 805.68 564.66 796.64"/><rect class="cls-3" x="586.9" y="779.48" width="3.84" height="29.68"/><path class="cls-3" d="M605.78,787.76a16.28,16.28,0,0,0-4.84.7,11.64,11.64,0,0,0-3.92,2l1.6,2.88a9.41,9.41,0,0,1,3-1.66,11.28,11.28,0,0,1,3.68-.62,6.09,6.09,0,0,1,4.24,1.32,4.89,4.89,0,0,1,1.44,3.8V797h-6.08q-4.44,0-6.48,1.7a5.91,5.91,0,0,0,.1,9,8.79,8.79,0,0,0,5.7,1.72,10.49,10.49,0,0,0,4.22-.78,6.15,6.15,0,0,0,2.74-2.26v2.8h3.64v-12.8c0-2.86-.78-5-2.34-6.44S608.71,787.76,605.78,787.76ZM611,802.68a5.67,5.67,0,0,1-2.32,2.78,7.19,7.19,0,0,1-3.8,1,5.67,5.67,0,0,1-3.44-.92,3,3,0,0,1-1.24-2.52c0-2.19,1.62-3.28,4.88-3.28H611Z"/><path class="cls-3" d="M633.4,798.06a31.21,31.21,0,0,0-4.14-.94c-1.28-.24-2.28-.45-3-.64a4.58,4.58,0,0,1-1.78-.88,2,2,0,0,1-.72-1.64,2.4,2.4,0,0,1,1.28-2.12,7,7,0,0,1,3.72-.8,11.06,11.06,0,0,1,6.12,1.68l1.64-3a11.47,11.47,0,0,0-3.48-1.4,17.63,17.63,0,0,0-4.24-.52,10.74,10.74,0,0,0-6.44,1.74,5.44,5.44,0,0,0-2.4,4.62,4.88,4.88,0,0,0,1.16,3.48,6.42,6.42,0,0,0,2.78,1.76,28.32,28.32,0,0,0,4.18.92c1.25.21,2.22.41,2.9.58a4.22,4.22,0,0,1,1.7.82,1.87,1.87,0,0,1,.68,1.52q0,2.88-5,2.88a14,14,0,0,1-4-.6,11.53,11.53,0,0,1-3.4-1.6l-1.6,3a11,11,0,0,0,3.76,1.78,18,18,0,0,0,5,.7,11.66,11.66,0,0,0,6.7-1.7,5.29,5.29,0,0,0,2.46-4.58,4.77,4.77,0,0,0-1.12-3.36A6.19,6.19,0,0,0,633.4,798.06Z"/><path class="cls-3" d="M649.74,806.16a3.21,3.21,0,0,1-2.46-.92,3.68,3.68,0,0,1-.86-2.64V791.12h6.08V788h-6.08v-4.64h-3.84V788H639v3.16h3.6v11.64a6.55,6.55,0,0,0,1.76,4.92,6.77,6.77,0,0,0,5,1.72,8.82,8.82,0,0,0,2.56-.38,5.89,5.89,0,0,0,2.08-1.1l-1.2-2.76A4.62,4.62,0,0,1,649.74,806.16Z"/><path class="cls-3" d="M660.5,778.88a2.52,2.52,0,0,0-1.86.74,2.4,2.4,0,0,0-.74,1.78,2.34,2.34,0,0,0,.74,1.76,2.73,2.73,0,0,0,3.72,0,2.5,2.5,0,0,0,.74-1.82,2.3,2.3,0,0,0-.74-1.74A2.61,2.61,0,0,0,660.5,778.88Z"/><rect class="cls-3" x="658.58" y="787.96" width="3.84" height="21.2"/><path class="cls-3" d="M675.2,792a7.59,7.59,0,0,1,3.74-.92,7,7,0,0,1,3.28.76,6.49,6.49,0,0,1,2.48,2.28l2.92-1.88a8.28,8.28,0,0,0-3.5-3.36,11,11,0,0,0-5.14-1.16,11.9,11.9,0,0,0-5.78,1.38,10.07,10.07,0,0,0-4,3.84,11.53,11.53,0,0,0,0,11.16,10.19,10.19,0,0,0,4,3.86,11.8,11.8,0,0,0,5.78,1.4,11,11,0,0,0,5.14-1.18,8.51,8.51,0,0,0,3.5-3.38L684.7,803a6.65,6.65,0,0,1-2.48,2.28,7,7,0,0,1-3.28.76,7.59,7.59,0,0,1-3.74-.92,6.56,6.56,0,0,1-2.6-2.62,8,8,0,0,1-.94-3.94,7.87,7.87,0,0,1,.94-3.9A6.49,6.49,0,0,1,675.2,792Z"/><path class="cls-3" d="M704,798.06a31.21,31.21,0,0,0-4.14-.94c-1.28-.24-2.28-.45-3-.64a4.58,4.58,0,0,1-1.78-.88,2,2,0,0,1-.72-1.64,2.4,2.4,0,0,1,1.28-2.12,7,7,0,0,1,3.72-.8,11.06,11.06,0,0,1,6.12,1.68l1.64-3a11.47,11.47,0,0,0-3.48-1.4,17.63,17.63,0,0,0-4.24-.52A10.74,10.74,0,0,0,693,789.5a5.44,5.44,0,0,0-2.4,4.62,4.88,4.88,0,0,0,1.16,3.48,6.42,6.42,0,0,0,2.78,1.76,28.32,28.32,0,0,0,4.18.92c1.25.21,2.22.41,2.9.58a4.22,4.22,0,0,1,1.7.82,1.87,1.87,0,0,1,.68,1.52q0,2.88-5,2.88a14,14,0,0,1-4-.6,11.53,11.53,0,0,1-3.4-1.6l-1.6,3a11,11,0,0,0,3.76,1.78,17.92,17.92,0,0,0,5,.7,11.66,11.66,0,0,0,6.7-1.7,5.29,5.29,0,0,0,2.46-4.58,4.77,4.77,0,0,0-1.12-3.36A6.19,6.19,0,0,0,704,798.06Z"/><path class="cls-3" d="M726.72,789.14a10.64,10.64,0,0,0-5.43-1.38,10.8,10.8,0,0,0-5.45,1.38A9.86,9.86,0,0,0,712,793a11.21,11.21,0,0,0-1.38,5.56,11.05,11.05,0,0,0,1.42,5.6,9.82,9.82,0,0,0,4,3.86,12.58,12.58,0,0,0,6,1.38,12.41,12.41,0,0,0,4.78-.88,9.37,9.37,0,0,0,3.58-2.56l-2.13-2.48a7.83,7.83,0,0,1-6.12,2.56,8,8,0,0,1-5.21-1.7,6.64,6.64,0,0,1-2.46-4.5h17.2a11.53,11.53,0,0,0,.07-1.16,11.66,11.66,0,0,0-1.34-5.68A9.71,9.71,0,0,0,726.72,789.14Zm-12.22,7.94a6.75,6.75,0,0,1,2.17-4.4,6.67,6.67,0,0,1,4.62-1.68,6.59,6.59,0,0,1,4.63,1.7,6.78,6.78,0,0,1,2.17,4.38Z"/><path class="cls-3" d="M744.21,787.76a16.26,16.26,0,0,0-4.83.7,11.55,11.55,0,0,0-3.92,2l1.6,2.88a9.46,9.46,0,0,1,3-1.66,11.33,11.33,0,0,1,3.68-.62A6.05,6.05,0,0,1,748,792.4a4.86,4.86,0,0,1,1.45,3.8V797h-6.08c-3,0-5.13.57-6.48,1.7a5.89,5.89,0,0,0,.1,9,8.78,8.78,0,0,0,5.69,1.72,10.51,10.51,0,0,0,4.23-.78,6.2,6.2,0,0,0,2.74-2.26v2.8h3.63v-12.8c0-2.86-.78-5-2.33-6.44S747.15,787.76,744.21,787.76Zm5.25,14.92a5.64,5.64,0,0,1-2.33,2.78,7.13,7.13,0,0,1-3.79,1,5.67,5.67,0,0,1-3.44-.92,3,3,0,0,1-1.24-2.52c0-2.19,1.62-3.28,4.88-3.28h5.92Z"/><path class="cls-3" d="M764.09,791.52V788h-3.67v21.2h3.83V798.6a7.38,7.38,0,0,1,1.78-5.3,6.47,6.47,0,0,1,4.9-1.86,7,7,0,0,1,.89,0v-3.72a10.79,10.79,0,0,0-4.77,1A6.58,6.58,0,0,0,764.09,791.52Z"/><path class="cls-3" d="M781.79,792a7.65,7.65,0,0,1,3.74-.92,7.05,7.05,0,0,1,3.29.76,6.39,6.39,0,0,1,2.47,2.28l2.92-1.88a8.17,8.17,0,0,0-3.5-3.36,11,11,0,0,0-5.13-1.16,12,12,0,0,0-5.79,1.38,10,10,0,0,0-4,3.84,11.53,11.53,0,0,0,0,11.16,10.16,10.16,0,0,0,4,3.86,11.87,11.87,0,0,0,5.79,1.4,11,11,0,0,0,5.13-1.18,8.39,8.39,0,0,0,3.5-3.38L791.29,803a6.55,6.55,0,0,1-2.47,2.28,7.05,7.05,0,0,1-3.29.76,7.65,7.65,0,0,1-3.74-.92,6.68,6.68,0,0,1-2.6-2.62,8.08,8.08,0,0,1-.94-3.94,8,8,0,0,1,.94-3.9A6.62,6.62,0,0,1,781.79,792Z"/><path class="cls-3" d="M810.21,787.76a10.75,10.75,0,0,0-4.33.84,7.84,7.84,0,0,0-3.14,2.36V779.48H798.9v29.68h3.84V798.24a7.14,7.14,0,0,1,1.79-5.22,6.62,6.62,0,0,1,4.93-1.82,5.55,5.55,0,0,1,4.23,1.56,6.5,6.5,0,0,1,1.48,4.64v11.76H819V797q0-4.51-2.38-6.86A8.74,8.74,0,0,0,810.21,787.76Z"/><polygon class="cls-3" points="77.59 679.72 69.61 679.72 43.01 707.09 43.01 679.72 36.01 679.72 36.01 728.72 43.01 728.72 43.01 716.05 51.97 706.95 70.73 728.72 78.92 728.72 56.66 701.77 77.59 679.72"/><path class="cls-3" d="M109.54,693.68a20.1,20.1,0,0,0-9.9-2.41,20.34,20.34,0,0,0-9.94,2.41,17.56,17.56,0,0,0-6.9,6.72,20.46,20.46,0,0,0,0,19.53,17.86,17.86,0,0,0,6.9,6.76,20.14,20.14,0,0,0,9.94,2.45,19.91,19.91,0,0,0,9.9-2.45,17.82,17.82,0,0,0,6.86-6.76,20.39,20.39,0,0,0,0-19.53A17.52,17.52,0,0,0,109.54,693.68Zm.95,23.31a11.52,11.52,0,0,1-4.45,4.62,13.26,13.26,0,0,1-12.81,0A11.79,11.79,0,0,1,88.75,717a15,15,0,0,1,0-13.65,11.62,11.62,0,0,1,4.48-4.58,13.55,13.55,0,0,1,12.81,0,11.35,11.35,0,0,1,4.45,4.58,15.27,15.27,0,0,1,0,13.65Z"/><path class="cls-3" d="M141.71,723.47a5.63,5.63,0,0,1-4.31-1.61,6.55,6.55,0,0,1-1.5-4.62V697.15h10.64v-5.53H135.9V683.5h-6.72v8.12h-6.3v5.53h6.3v20.37q0,5.6,3.08,8.61c2.05,2,5,3,8.68,3a15,15,0,0,0,4.48-.67,9.94,9.94,0,0,0,3.64-1.92l-2.1-4.83A8.15,8.15,0,0,1,141.71,723.47Z"/><rect class="cls-3" x="157.18" y="676.78" width="6.72" height="51.94"/><path class="cls-3" d="M180.07,675.73a4.44,4.44,0,0,0-3.26,1.29,4.27,4.27,0,0,0-1.29,3.12,4.15,4.15,0,0,0,1.29,3.08,4.5,4.5,0,0,0,3.26,1.26,4.39,4.39,0,0,0,3.25-1.3,4.29,4.29,0,0,0,1.3-3.18,4,4,0,0,0-1.3-3A4.57,4.57,0,0,0,180.07,675.73Z"/><rect class="cls-3" x="176.71" y="691.62" width="6.72" height="37.1"/><path class="cls-3" d="M216.05,691.27a19.17,19.17,0,0,0-7.88,1.54,12.93,12.93,0,0,0-5.49,4.41v-5.6h-6.44v37.1H203V709.61q0-6,3.15-9.14t8.61-3.18q4.83,0,7.42,2.73c1.72,1.82,2.59,4.52,2.59,8.12v20.58h6.72V707.37q0-7.92-4.17-12T216.05,691.27Z"/><path class="cls-3" d="M724.19,653.91h7.1l2.2-18h18.9l-2.2,18h7.1l2.2-18h14.8v-7.3h-13.9l2.4-19.4h14.7v-7.3h-13.8l2.2-18h-7.1l-2.2,18h-18.8l2.2-18h-7.1l-2.2,18h-14.9v7.3h14l-2.5,19.4h-14.7v7.3h13.8Zm12.7-44.7h18.8l-2.4,19.4h-18.9Z"/><path class="cls-3" d="M181.17,91.38a19.7,19.7,0,0,0,8.77,2q8.1,0,12.27-4.39t4.16-13.09V40.27H180v6.52h19V76.27q0,5.25-2.28,8t-6.72,2.7q-6.6,0-10.95-6.23l-4.35,5.1A16.75,16.75,0,0,0,181.17,91.38Z"/><path class="cls-3" d="M233.52,69.89q-8.33,0-12.15,3.19a10.44,10.44,0,0,0-3.83,8.44,10.33,10.33,0,0,0,4,8.47q4,3.23,10.68,3.23a19.57,19.57,0,0,0,7.92-1.47,11.34,11.34,0,0,0,5.13-4.23v5.25h6.83v-24q0-8-4.39-12.08t-12.64-4A30.89,30.89,0,0,0,226,54a21.86,21.86,0,0,0-7.35,3.79l3,5.4a17.68,17.68,0,0,1,5.7-3.11,20.91,20.91,0,0,1,6.9-1.16q5.25,0,7.95,2.47t2.7,7.13v1.42Zm11.4,10.73a10.53,10.53,0,0,1-4.35,5.21,13.44,13.44,0,0,1-7.13,1.84A10.63,10.63,0,0,1,227,85.94a5.55,5.55,0,0,1-2.32-4.72q0-6.15,9.15-6.15h11.1Z"/><polygon class="cls-3" points="282.49 92.77 299.89 53.02 292.84 53.02 278.89 84.89 265.24 53.02 257.74 53.02 275.14 92.77 282.49 92.77"/><path class="cls-3" d="M318.27,69.89q-8.32,0-12.15,3.19A11.08,11.08,0,0,0,306.3,90q4,3.23,10.69,3.23a19.49,19.49,0,0,0,7.91-1.47A11.32,11.32,0,0,0,330,87.52v5.25h6.83v-24q0-8-4.39-12.08t-12.64-4A30.89,30.89,0,0,0,310.77,54a21.86,21.86,0,0,0-7.35,3.79l3,5.4a17.68,17.68,0,0,1,5.7-3.11,20.91,20.91,0,0,1,6.9-1.16q5.25,0,8,2.47t2.7,7.13v1.42Zm11.4,10.73a10.53,10.53,0,0,1-4.35,5.21,13.44,13.44,0,0,1-7.13,1.84,10.63,10.63,0,0,1-6.45-1.73,5.55,5.55,0,0,1-2.32-4.72q0-6.15,9.15-6.15h11.1Z"/></g></g></g></svg>