<svg id="visual" viewBox="0 0 1920 1080" width="1920" height="1080" xmlns="http://www.w3.org/2000/svg" xmlns:xlink="http://www.w3.org/1999/xlink" version="1.1"><rect x="0" y="0" width="1920" height="1080" fill="#c8a6b6"></rect><path d="M0 649L274 780L549 640L823 747L1097 740L1371 634L1646 793L1920 775L1920 1081L1646 1081L1371 1081L1097 1081L823 1081L549 1081L274 1081L0 1081Z" fill="#fdfdb6"></path><path d="M0 725L274 817L549 818L823 705L1097 814L1371 707L1646 776L1920 724L1920 1081L1646 1081L1371 1081L1097 1081L823 1081L549 1081L274 1081L0 1081Z" fill="#fbe094"></path><path d="M0 908L274 819L549 826L823 902L1097 830L1371 850L1646 777L1920 817L1920 1081L1646 1081L1371 1081L1097 1081L823 1081L549 1081L274 1081L0 1081Z" fill="#fac27a"></path><path d="M0 929L274 946L549 940L823 957L1097 885L1371 907L1646 906L1920 923L1920 1081L1646 1081L1371 1081L1097 1081L823 1081L549 1081L274 1081L0 1081Z" fill="#f8a269"></path><path d="M0 1037L274 955L549 984L823 983L1097 986L1371 1027L1646 976L1920 1011L1920 1081L1646 1081L1371 1081L1097 1081L823 1081L549 1081L274 1081L0 1081Z" fill="#f38161"></path></svg>