<svg id="visual" viewBox="0 0 1920 1080" width="1920" height="1080" xmlns="http://www.w3.org/2000/svg" xmlns:xlink="http://www.w3.org/1999/xlink" version="1.1"><rect x="0" y="0" width="1920" height="1080" fill="#ffffff"></rect><path d="M0 555L320 488L640 517L960 466L1280 576L1600 599L1920 553L1920 1081L1600 1081L1280 1081L960 1081L640 1081L320 1081L0 1081Z" fill="#ddccd0"></path><path d="M0 518L320 556L640 547L960 536L1280 628L1600 655L1920 628L1920 1081L1600 1081L1280 1081L960 1081L640 1081L320 1081L0 1081Z" fill="#e4c1c7"></path><path d="M0 607L320 693L640 684L960 644L1280 711L1600 639L1920 617L1920 1081L1600 1081L1280 1081L960 1081L640 1081L320 1081L0 1081Z" fill="#eab5bb"></path><path d="M0 662L320 724L640 760L960 757L1280 728L1600 747L1920 754L1920 1081L1600 1081L1280 1081L960 1081L640 1081L320 1081L0 1081Z" fill="#efaaad"></path><path d="M0 760L320 816L640 771L960 818L1280 780L1600 779L1920 732L1920 1081L1600 1081L1280 1081L960 1081L640 1081L320 1081L0 1081Z" fill="#f39e9d"></path><path d="M0 840L320 839L640 868L960 845L1280 865L1600 827L1920 869L1920 1081L1600 1081L1280 1081L960 1081L640 1081L320 1081L0 1081Z" fill="#f5948a"></path><path d="M0 902L320 904L640 933L960 878L1280 921L1600 900L1920 892L1920 1081L1600 1081L1280 1081L960 1081L640 1081L320 1081L0 1081Z" fill="#f58a77"></path><path d="M0 958L320 968L640 991L960 950L1280 974L1600 973L1920 959L1920 1081L1600 1081L1280 1081L960 1081L640 1081L320 1081L0 1081Z" fill="#f38161"></path></svg>