<svg id="visual" viewBox="0 0 1920 700" width="1920" height="700" xmlns="http://www.w3.org/2000/svg" xmlns:xlink="http://www.w3.org/1999/xlink" version="1.1"><rect x="0" y="0" width="1920" height="700" fill="#ffffff"></rect><path d="M0 337L320 275L640 247L960 395L1280 339L1600 429L1920 179L1920 701L1600 701L1280 701L960 701L640 701L320 701L0 701Z" fill="#ddccd0"></path><path d="M0 398L320 400L640 274L960 304L1280 196L1600 437L1920 298L1920 701L1600 701L1280 701L960 701L640 701L320 701L0 701Z" fill="#e1c5ca"></path><path d="M0 390L320 417L640 303L960 469L1280 333L1600 364L1920 280L1920 701L1600 701L1280 701L960 701L640 701L320 701L0 701Z" fill="#e5bdc4"></path><path d="M0 443L320 284L640 432L960 487L1280 278L1600 310L1920 298L1920 701L1600 701L1280 701L960 701L640 701L320 701L0 701Z" fill="#e9b6bc"></path><path d="M0 351L320 464L640 479L960 385L1280 512L1600 450L1920 410L1920 701L1600 701L1280 701L960 701L640 701L320 701L0 701Z" fill="#edafb3"></path><path d="M0 451L320 521L640 452L960 467L1280 504L1600 470L1920 406L1920 701L1600 701L1280 701L960 701L640 701L320 701L0 701Z" fill="#f0a8aa"></path><path d="M0 523L320 520L640 438L960 552L1280 522L1600 539L1920 487L1920 701L1600 701L1280 701L960 701L640 701L320 701L0 701Z" fill="#f2a0a0"></path><path d="M0 508L320 492L640 563L960 564L1280 510L1600 497L1920 567L1920 701L1600 701L1280 701L960 701L640 701L320 701L0 701Z" fill="#f49a95"></path><path d="M0 528L320 554L640 561L960 523L1280 541L1600 598L1920 515L1920 701L1600 701L1280 701L960 701L640 701L320 701L0 701Z" fill="#f59389"></path><path d="M0 600L320 565L640 601L960 533L1280 623L1600 558L1920 589L1920 701L1600 701L1280 701L960 701L640 701L320 701L0 701Z" fill="#f58c7c"></path><path d="M0 588L320 644L640 577L960 608L1280 576L1600 650L1920 625L1920 701L1600 701L1280 701L960 701L640 701L320 701L0 701Z" fill="#f5866f"></path><path d="M0 635L320 625L640 662L960 655L1280 624L1600 658L1920 644L1920 701L1600 701L1280 701L960 701L640 701L320 701L0 701Z" fill="#f38161"></path></svg>