<svg xmlns="http://www.w3.org/2000/svg" viewBox="0 0 566.93 566.68"><defs><style>.cls-1{fill:#231f20;}</style></defs><title>data_curvy_black</title><g id="Layer_2" data-name="Layer 2"><g id="Layer_1-2" data-name="Layer 1"><path class="cls-1" d="M566.93,129.62V32.24A32.23,32.23,0,0,0,534.69,0H32.24A32.23,32.23,0,0,0,0,32.24v97.38a32.25,32.25,0,0,0,28.38,32c0,.13,0,.27,0,.4v37.45c0,.12,0,.24,0,.36A32.23,32.23,0,0,0,0,231.83V334.21a32.25,32.25,0,0,0,28.36,32v37.51a9.56,9.56,0,0,0,.1,1.33A32.25,32.25,0,0,0,0,437.06v97.38a32.23,32.23,0,0,0,32.24,32.24H534.69a32.23,32.23,0,0,0,32.24-32.24V437.06a32.25,32.25,0,0,0-28.46-32,9.56,9.56,0,0,0,.1-1.33V366.21a32.25,32.25,0,0,0,28.36-32V231.83a32.23,32.23,0,0,0-28.38-32c0-.12,0-.24,0-.36V162c0-.13,0-.27,0-.4A32.25,32.25,0,0,0,566.93,129.62Zm-38.36,69.85H38.36V162H528.57Zm0,167v37.27H38.36V366.45Zm28.36,70.61v97.38a22.27,22.27,0,0,1-22.24,22.24H32.24A22.27,22.27,0,0,1,10,534.44V437.06a22.26,22.26,0,0,1,22.24-22.23H534.69A22.26,22.26,0,0,1,556.93,437.06Zm0-205.23V334.21a22.27,22.27,0,0,1-22.24,22.24h-4.33a9.61,9.61,0,0,0-1.79-.17H38.36a9.61,9.61,0,0,0-1.79.17H32.24A22.27,22.27,0,0,1,10,334.21V231.83a22.27,22.27,0,0,1,22.24-22.24H534.69A22.27,22.27,0,0,1,556.93,231.83Zm0-102.21a22.26,22.26,0,0,1-22.24,22.23H32.24A22.26,22.26,0,0,1,10,129.62V32.24A22.27,22.27,0,0,1,32.24,10H534.69a22.27,22.27,0,0,1,22.24,22.24Z"/><path class="cls-1" d="M97.79,75.93H44.17a5,5,0,0,0,0,10H97.79a5,5,0,1,0,0-10Z"/><path class="cls-1" d="M192.77,75.93H139.15a5,5,0,0,0,0,10h53.62a5,5,0,1,0,0-10Z"/><path class="cls-1" d="M97.79,278H44.17a5,5,0,0,0,0,10H97.79a5,5,0,1,0,0-10Z"/><path class="cls-1" d="M192.77,278H139.15a5,5,0,1,0,0,10h53.62a5,5,0,0,0,0-10Z"/><path class="cls-1" d="M97.79,480.75H44.17a5,5,0,1,0,0,10H97.79a5,5,0,0,0,0-10Z"/><path class="cls-1" d="M192.77,480.75H139.15a5,5,0,1,0,0,10h53.62a5,5,0,0,0,0-10Z"/></g></g></svg>