<svg xmlns="http://www.w3.org/2000/svg" viewBox="0 0 566.93 566.93"><defs><style>.cls-1{fill:#fff;}</style></defs><title>linkedin_white</title><g id="Layer_2" data-name="Layer 2"><g id="Layer_1-2" data-name="Layer 1"><path class="cls-1" d="M283.46,0C126.91,0,0,126.91,0,283.46S126.91,566.93,283.46,566.93,566.93,440,566.93,283.46,440,0,283.46,0ZM202.52,427H147.7V237.55h54.82ZM174.94,209.64c-18.29.53-35.91-17.13-35.43-35.51.49-17.89,17.06-34.56,34.48-34.68,19.12-.14,35.45,16.53,35.12,35.82C208.78,193.6,193.37,209.1,174.94,209.64ZM426.66,427.48H369.23c0-34,.53-67.08-.16-100.16-.66-32.39-28.6-51.45-54.14-35.11-10.42,6.67-19.16,23.09-20.28,35.8-2.84,32.27-.95,65-.95,98.94H237.44V240.28c32.09-10.37,53.49-5.77,57.64,7.4,23.15-4.79,45.52-12.75,68.07-13.31,31.8-.8,60.8,24.23,62.78,55.44C428.79,334.78,426.66,380.06,426.66,427.48Z"/></g></g></svg>