<svg xmlns="http://www.w3.org/2000/svg" viewBox="0 0 566.93 566.93"><defs><style>.cls-1{fill:#fff;}</style></defs><title>mail_white</title><g id="Layer_2" data-name="Layer 2"><g id="Layer_1-2" data-name="Layer 1"><path class="cls-1" d="M233,300.12a11.94,11.94,0,0,0-.86-.89c-3.7-3.55-7.34-7.22-10.85-10.79-1.46-1.47-2.93-3-4.4-4.43l-76.05-76.32V364.25c0,4.15.13,9,.68,9.73s10.92.37,11.9.37c2.65,0,4.06,0,5.31-1.24,21.95-21.66,47.88-47.2,73.77-72.47A5.4,5.4,0,0,0,233,300.12Z"/><path class="cls-1" d="M314.93,320.41a1.39,1.39,0,0,0-.21.21l-.33.34c-1,1-1.93,2-2.89,3-3.55,3.65-7.23,7.43-11.13,10.91-10.08,9-23.06,8.81-33-.49-4.61-4.31-8.87-8.63-14-13.81l-.51-.53,0,0c-15.38,15.12-30.58,29.91-46.66,45.57l-8.52,8.3c31.82.46,142.11.25,172-.31L362.88,367C347.1,351.73,330.79,336,314.93,320.41Z"/><path class="cls-1" d="M282.67,309.44a9,9,0,0,0,.79.7c.41-.31,1-.9,1.24-1.12q18.8-18.52,37.69-37c15.67-15.36,31.88-31.24,47.75-46.93,8.5-8.4,16.94-17.11,25.12-25.54,2-2.11,4.06-4.2,6.08-6.29-36.62-.43-199.12-.51-235.77-.12l28.37,28.14C223.05,250.15,253.15,280,282.67,309.44Z"/><path class="cls-1" d="M426.08,210.58c-16.23,15.94-64.07,62.94-89.16,87.7a7.76,7.76,0,0,0-1.49,1.81,10,10,0,0,0,1.77,2l8,7.74c18.55,18,37.72,36.52,56,55.36,7.18,7.38,13.2,9.9,21.47,9h0a12.84,12.84,0,0,0,3.26-.6,6.31,6.31,0,0,0,.25-2.44C426.05,325.73,426.07,237.24,426.08,210.58Z"/><path class="cls-1" d="M283.46,0C126.91,0,0,126.91,0,283.46S126.91,566.93,283.46,566.93,566.93,440,566.93,283.46,440,0,283.46,0Zm170,373.91c0,17.94-9.59,27.43-27.72,27.43H140.61c-17.49,0-27.12-9.73-27.12-27.38q0-90.49,0-181c0-17.92,9.59-27.39,27.71-27.39H426.32c17.49,0,27.12,9.71,27.12,27.35Q453.46,283.42,453.44,373.91Z"/></g></g></svg>