<svg xmlns="http://www.w3.org/2000/svg" viewBox="0 0 564.2 564.93"><defs><style>.cls-1{fill:#231f20;}</style></defs><title>shop_curvy_black</title><g id="Layer_2" data-name="Layer 2"><g id="Layer_1-2" data-name="Layer 1"><path class="cls-1" d="M538.6,251.73H473.26c-3-43.11-31.27-76.88-65.66-76.88S345,208.62,341.94,251.73H319.87L315.7,124.05a25.62,25.62,0,0,0-25.6-24.78H247C243.38,43.64,207.88,0,164.61,0S85.84,43.64,82.19,99.27H38.64a25.62,25.62,0,0,0-25.59,24.78L0,522.92A16.83,16.83,0,0,0,16.83,540.3H251v7.8a16.82,16.82,0,0,0,16.83,16.83H547.37A16.82,16.82,0,0,0,564.2,548.1V277.34A25.61,25.61,0,0,0,538.6,251.73ZM368.86,205.78c10.52-13.5,24.28-20.93,38.74-20.93s28.22,7.43,38.74,20.93c9.67,12.41,15.56,28.51,16.91,45.95H352C353.3,234.29,359.19,218.19,368.86,205.78ZM114.06,37.91C127.75,19.91,145.7,10,164.61,10s36.86,9.91,50.55,27.91C227.77,54.49,235.39,76,237,99.27H92.21C93.83,76,101.45,54.49,114.06,37.91ZM16.83,530.3A6.83,6.83,0,0,1,10,523.24L23,124.37a15.55,15.55,0,0,1,15.6-15.1H290.1a15.55,15.55,0,0,1,15.6,15.1l4.17,127.36H276.61A25.61,25.61,0,0,0,251,277.34v253ZM554.2,548.1a6.83,6.83,0,0,1-6.83,6.83H267.83A6.83,6.83,0,0,1,261,548.1V277.34a15.62,15.62,0,0,1,15.61-15.61h262a15.62,15.62,0,0,1,15.6,15.61Z"/></g></g></svg>