<svg xmlns="http://www.w3.org/2000/svg" viewBox="0 0 566.93 566.93"><defs><style>.cls-1{fill:#b78a43;}</style></defs><title>web_gold_1</title><g id="Layer_2" data-name="Layer 2"><g id="Layer_1-2" data-name="Layer 1"><path class="cls-1" d="M196.81,363.82a175.72,175.72,0,0,0-36.38,27.59l-1.27,1.26a165.53,165.53,0,0,1-40.94-99.59h63.52A216.08,216.08,0,0,0,196.81,363.82Z"/><path class="cls-1" d="M181.74,273.85H118.22A165.47,165.47,0,0,1,159.84,173.5l.59.58a175.48,175.48,0,0,0,36.85,27.86A216.08,216.08,0,0,0,181.74,273.85Z"/><path class="cls-1" d="M173.93,160.39l-.49-.49a164.23,164.23,0,0,1,81.07-39.44l-9.34,9.35a217.69,217.69,0,0,0-39.82,54.51A154.85,154.85,0,0,1,173.93,160.39Z"/><path class="cls-1" d="M245.17,437.12l9.35,9.35a164.12,164.12,0,0,1-81.85-40.13l1.27-1.24a154,154,0,0,1,30.85-23.6A217.64,217.64,0,0,0,245.17,437.12Z"/><path class="cls-1" d="M258.76,143.41l15.09-15.09v76.36a155.08,155.08,0,0,1-51.19-11.81A197.25,197.25,0,0,1,258.76,143.41Z"/><path class="cls-1" d="M214.68,210.53a173,173,0,0,0,59.17,13.6v49.72H201.09A197.6,197.6,0,0,1,214.68,210.53Z"/><path class="cls-1" d="M201.09,293.08h72.76v48.28a173,173,0,0,0-59.66,13.81A197.9,197.9,0,0,1,201.09,293.08Z"/><path class="cls-1" d="M222.07,372.87a154.67,154.67,0,0,1,51.78-12.06v77.8l-15.09-15.09A197.16,197.16,0,0,1,222.07,372.87Z"/><path class="cls-1" d="M344.27,192.45a154.76,154.76,0,0,1-51.19,12.17V128.18l15.22,15.23A198.21,198.21,0,0,1,344.27,192.45Z"/><path class="cls-1" d="M344.87,373.3a198.17,198.17,0,0,1-36.57,50.22l-15.22,15.23V360.86A155,155,0,0,1,344.87,373.3Z"/><path class="cls-1" d="M352.81,355.63a173,173,0,0,0-59.73-14.21V293.08h73A197,197,0,0,1,352.81,355.63Z"/><path class="cls-1" d="M366.08,273.85h-73V224.07a173,173,0,0,0,59.25-14A196.84,196.84,0,0,1,366.08,273.85Z"/><path class="cls-1" d="M321.9,129.81l-9.32-9.32A164.21,164.21,0,0,1,393,159.43l-.5.5a154.54,154.54,0,0,1-31,23.88A217.59,217.59,0,0,0,321.9,129.81Z"/><path class="cls-1" d="M392.47,405.56l1.26,1.26a164.19,164.19,0,0,1-81.15,39.62l9.32-9.32A217.78,217.78,0,0,0,362,382,154.39,154.39,0,0,1,392.47,405.56Z"/><path class="cls-1" d="M385.33,293.08h63.38A165.46,165.46,0,0,1,407.3,393.19L406,391.94a175.51,175.51,0,0,0-36-27.59A216.31,216.31,0,0,0,385.33,293.08Z"/><path class="cls-1" d="M406.61,173a165.38,165.38,0,0,1,42.1,100.87H385.33a215.94,215.94,0,0,0-15.76-72.43A175.75,175.75,0,0,0,406,173.55Z"/><path class="cls-1" d="M283.46,0C126.91,0,0,126.91,0,283.46S126.91,566.93,283.46,566.93,566.93,440,566.93,283.46,440,0,283.46,0ZM418.64,418.65a191.17,191.17,0,1,1,56-135.19A189.93,189.93,0,0,1,418.64,418.65Z"/></g></g></svg>