<svg xmlns="http://www.w3.org/2000/svg" viewBox="0 0 849.98 850.42"><defs><style>.cls-1{fill:#fff;}.cls-2{fill:#b78a43;}.cls-3{fill:#231f20;}</style></defs><title>p3_v2</title><g id="Layer_2" data-name="Layer 2"><g id="readyready"><g id="p3"><path class="cls-1" d="M835,262.55H625.31L676.37,297v81.76a12.51,12.51,0,0,0,12.51,12.51H835a12.51,12.51,0,0,0,12.51-12.51V275.06A12.51,12.51,0,0,0,835,262.55Z"/><path class="cls-1" d="M831.77,744.06H619.27l-18.39-33.17-17.61,33.17H547.34a15.56,15.56,0,0,0-15.56,15.57v72.72a15.56,15.56,0,0,0,15.56,15.57H831.77a15.57,15.57,0,0,0,15.56-15.57V759.63A15.57,15.57,0,0,0,831.77,744.06Z"/><path class="cls-1" d="M558.05,262.51l17.62-33.17H754.05a15.57,15.57,0,0,0,15.57-15.56V141.05a15.57,15.57,0,0,0-15.57-15.56H504.35a15.56,15.56,0,0,0-15.56,15.56v72.73a15.56,15.56,0,0,0,15.56,15.56h35.32Z"/><path class="cls-1" d="M341.8,2.5H169.46a15.57,15.57,0,0,0-15.57,15.56V119.45A15.57,15.57,0,0,0,169.46,135H341.8a15.56,15.56,0,0,0,15.56-15.56V18.06A15.56,15.56,0,0,0,341.8,2.5Z"/><rect class="cls-1" x="2.5" y="358.11" width="146.02" height="146.02" rx="23.74"/><path class="cls-2" d="M60.33,269.64h201l-51.06-34.41v-40.4a12.52,12.52,0,0,0-12.51-12.51H60.33a12.51,12.51,0,0,0-12.51,12.51v62.3A12.51,12.51,0,0,0,60.33,269.64Z"/><path class="cls-2" d="M2.82,659.32v91.4a12.51,12.51,0,0,0,12.51,12.51H250.69a12.51,12.51,0,0,0,12.51-12.51V681.21l51.07-34.4H15.33A12.51,12.51,0,0,0,2.82,659.32Z"/><rect class="cls-2" x="674.5" y="545.09" width="146.02" height="146.02" rx="23.74"/><rect class="cls-2" x="644.7" y="36.49" width="57.83" height="57.83"/><rect class="cls-2" x="727.78" y="36.49" width="57.83" height="57.83"/><path class="cls-3" d="M204.84,331.68v97H187.25v5h17.59V618.86h168l-5.23,54.67H323.12A26.18,26.18,0,0,0,297,699.68v2.5H552.69v-2.5a26.18,26.18,0,0,0-26.16-26.15H482.09l-5.23-54.67H644.81V481.18h18.26v-5H644.81V331.68A30.88,30.88,0,0,0,614,300.84H432.89v-19h-5v19H235.68A30.88,30.88,0,0,0,204.84,331.68ZM482.57,678.53h44a21.18,21.18,0,0,1,21,18.65H302.11a21.18,21.18,0,0,1,21-18.65h44v.07H482.57Zm-5.51-5H372.59L377.8,619h94.05Zm162.75-59.67h-430V580.23h430ZM614,305.84a25.87,25.87,0,0,1,25.84,25.84V575.23h-430V331.68a25.87,25.87,0,0,1,25.84-25.84Z"/><path class="cls-3" d="M218.82,334.84v232h412V336.35a22.18,22.18,0,0,0-22.16-22.15H239.46A20.66,20.66,0,0,0,218.82,334.84Z"/><path class="cls-3" d="M404.91,599.29h39.83a2.5,2.5,0,0,0,0-5H404.91a2.5,2.5,0,0,0,0,5Z"/><path class="cls-3" d="M60.33,272.14H99v7.05h5v-7.05H269.51L212.77,233.9V194.83a15,15,0,0,0-15-15H60.33a15,15,0,0,0-15,15v62.3A15,15,0,0,0,60.33,272.14Zm-10-77.31a10,10,0,0,1,10-10H197.75a10,10,0,0,1,10,10v41.73l45.38,30.58H60.33a10,10,0,0,1-10-10Z"/><path class="cls-3" d="M15.33,644.31a15,15,0,0,0-15,15v91.4a15,15,0,0,0,15,15H250.69a15,15,0,0,0,15-15V682.54l56.75-38.23ZM260.7,679.88v70.84a10,10,0,0,1-10,10H15.33a10,10,0,0,1-10-10v-91.4a10,10,0,0,1,10-10H306.08Z"/><path class="cls-3" d="M835,260.05H617.12l56.75,38.24v80.43a15,15,0,0,0,15,15H835a15,15,0,0,0,15-15V275.06A15,15,0,0,0,835,260.05Zm10,118.67a10,10,0,0,1-10,10H688.88a10,10,0,0,1-10-10V295.63l-45.38-30.58H835a10,10,0,0,1,10,10Z"/><path class="cls-3" d="M831.77,741.56h-211l-19.9-35.91-19.08,35.91H547.34a18.09,18.09,0,0,0-18.06,18.07v54.51h-7.5v5h7.5v13.21a18.09,18.09,0,0,0,18.06,18.07H831.77a18.09,18.09,0,0,0,18.06-18.07V759.63A18.09,18.09,0,0,0,831.77,741.56Zm13.06,90.79a13.09,13.09,0,0,1-13.06,13.07H547.34a13.09,13.09,0,0,1-13.06-13.07V759.63a13.08,13.08,0,0,1,13.06-13.07h37.43l16.16-30.42,16.86,30.42h214a13.08,13.08,0,0,1,13.06,13.07Z"/><path class="cls-3" d="M504.35,231.84H538.2l19.9,35.91,19.07-35.91H754.05a18.09,18.09,0,0,0,18.07-18.06V141.05A18.09,18.09,0,0,0,754.05,123H504.35a18.08,18.08,0,0,0-18.06,18.06v72.73A18.08,18.08,0,0,0,504.35,231.84Zm-13.06-90.79A13.08,13.08,0,0,1,504.35,128h249.7a13.08,13.08,0,0,1,13.07,13.06v72.73a13.08,13.08,0,0,1-13.07,13.06H574.17L558,257.27l-16.87-30.43H504.35a13.08,13.08,0,0,1-13.06-13.06Z"/><path class="cls-3" d="M169.46,137.51H341.8a18.08,18.08,0,0,0,18.06-18.06V77.2h17.68v-5H359.86V18.06A18.08,18.08,0,0,0,341.8,0H169.46a18.09,18.09,0,0,0-18.07,18.06V119.45A18.09,18.09,0,0,0,169.46,137.51ZM156.39,18.06A13.08,13.08,0,0,1,169.46,5H341.8a13.08,13.08,0,0,1,13.06,13.06V119.45a13.08,13.08,0,0,1-13.06,13.06H169.46a13.08,13.08,0,0,1-13.07-13.06Z"/><path class="cls-3" d="M26.25,506.63h98.53A26.28,26.28,0,0,0,151,480.38V433.69h16.23v-5H151V381.85a26.27,26.27,0,0,0-26.24-26.24H104V339.19H99v16.42H26.25A26.27,26.27,0,0,0,0,381.85v98.53A26.28,26.28,0,0,0,26.25,506.63ZM5,381.85a21.27,21.27,0,0,1,21.25-21.24h98.53A21.27,21.27,0,0,1,146,381.85v98.53a21.27,21.27,0,0,1-21.24,21.25H26.25A21.27,21.27,0,0,1,5,480.38Z"/><path class="cls-3" d="M672,568.83v98.53a26.28,26.28,0,0,0,26.25,26.25h98.53A26.28,26.28,0,0,0,823,667.36V568.83a26.28,26.28,0,0,0-26.24-26.25H698.25A26.28,26.28,0,0,0,672,568.83Zm26.25-21.25h98.53A21.27,21.27,0,0,1,818,568.83v98.53a21.27,21.27,0,0,1-21.24,21.25H698.25A21.27,21.27,0,0,1,677,667.36V568.83A21.28,21.28,0,0,1,698.25,547.58Z"/><path class="cls-3" d="M100.13,592.36l-51-29.43V621.8Zm-46-20.77,36,20.77-36,20.78Z"/><path class="cls-3" d="M114.25,621.8l51-29.44-51-29.43Zm5-50.21,36,20.77-36,20.78Z"/><path class="cls-3" d="M705,34H642.21V96.82H705Zm-5,57.83H647.21V39H700Z"/><path class="cls-3" d="M788.11,34H725.28V96.82h62.83Zm-5,57.83H730.28V39h52.83Z"/><path class="cls-3" d="M656.84,67.71,687.6,88.53l2.8-4.15L662.63,65.6,689.8,46.4l-2.89-4.09L656.79,63.6a2.5,2.5,0,0,0,.05,4.11Z"/><path class="cls-3" d="M742.71,88.53l30.77-20.82a2.46,2.46,0,0,0,1.09-2,2.49,2.49,0,0,0-1.05-2.07L743.4,42.31l-2.89,4.09,27.17,19.2L739.91,84.38Z"/><path class="cls-3" d="M76.37,229.73l28.23,19.1,2.81-4.14L82.17,227.61l24.68-17.44L104,206.08,76.33,225.62a2.5,2.5,0,0,0,0,4.11Z"/><path class="cls-3" d="M155.41,248.83l28.23-19.1a2.5,2.5,0,0,0,.05-4.11l-27.64-19.54-2.89,4.09,24.69,17.44-25.24,17.08Z"/><rect class="cls-3" x="121.51" y="779.11" width="5" height="10"/><path class="cls-3" d="M126.51,806.64h-5v10a2.5,2.5,0,0,0,2.5,2.5h10v-5h-7.5Z"/><rect class="cls-3" x="195.24" y="814.14" width="20.41" height="5"/><rect class="cls-3" x="358.51" y="814.14" width="20.41" height="5"/><rect class="cls-3" x="317.69" y="814.14" width="20.41" height="5"/><rect class="cls-3" x="154.42" y="814.14" width="20.41" height="5"/><rect class="cls-3" x="276.87" y="814.14" width="20.41" height="5"/><rect class="cls-3" x="236.05" y="814.14" width="20.41" height="5"/><rect class="cls-3" x="480.96" y="814.14" width="20.41" height="5"/><rect class="cls-3" x="399.33" y="814.14" width="20.41" height="5"/><rect class="cls-3" x="440.14" y="814.14" width="20.41" height="5"/><rect class="cls-3" x="752.4" y="410.51" width="5" height="20"/><rect class="cls-3" x="752.4" y="450.51" width="5" height="20"/><rect class="cls-3" x="683.07" y="476.18" width="20" height="5"/><rect class="cls-3" x="723.07" y="476.18" width="20" height="5"/><rect class="cls-3" x="99.04" y="299.19" width="5" height="20"/><rect class="cls-3" x="427.89" y="81.83" width="5" height="20"/><rect class="cls-3" x="427.89" y="201.83" width="5" height="20"/><rect class="cls-3" x="397.54" y="72.19" width="20" height="5"/><rect class="cls-3" x="427.89" y="121.83" width="5" height="20"/><rect class="cls-3" x="427.89" y="161.83" width="5" height="20"/><rect class="cls-3" x="427.89" y="241.83" width="5" height="20"/><path class="cls-3" d="M39.46,446.83a21.5,21.5,0,0,1-6.82-4.08l-2.78,5.85a22.78,22.78,0,0,0,7.84,4.46,36.66,36.66,0,0,0,10.39,2.06v8.48h4.8v-8.48q8.47-.67,12.94-4.8a13.19,13.19,0,0,0,4.46-10.05,11.57,11.57,0,0,0-2.44-7.69,15.55,15.55,0,0,0-6-4.35,64.7,64.7,0,0,0-9-2.81V408a26.43,26.43,0,0,1,12.75,4.2l2.47-6a24.32,24.32,0,0,0-6.94-3.23,32.72,32.72,0,0,0-8.28-1.35V393.1h-4.8v8.55q-8.33.68-12.64,4.8a13.36,13.36,0,0,0-4.31,10.05,11.77,11.77,0,0,0,2.36,7.65,15,15,0,0,0,5.85,4.42,55.67,55.67,0,0,0,8.74,2.78v17.4A28.7,28.7,0,0,1,39.46,446.83Zm13.43-14.28a25.49,25.49,0,0,1,7.46,3.11,5.74,5.74,0,0,1,2.59,5.06,6.73,6.73,0,0,1-2.52,5.36q-2.51,2.15-7.53,2.59ZM41,421.22a5.85,5.85,0,0,1-2.47-5,7,7,0,0,1,2.4-5.37q2.4-2.2,7.2-2.81v16.2A21.32,21.32,0,0,1,41,421.22Z"/><path class="cls-3" d="M84.39,435.77V453q0,5.48,2.85,8.29t8.47,2.81H99V458.2H97.14q-5.55,0-5.55-5.85V435.92a8.94,8.94,0,0,0-1-4.65A5.4,5.4,0,0,0,87.46,429a5.4,5.4,0,0,0,3.15-2.25,8.94,8.94,0,0,0,1-4.65V405.7q0-5.85,5.55-5.85H99v-5.93h-3.3q-5.62,0-8.47,2.81T84.39,405v17.25Q84.39,426,81,426H78.39v6H81Q84.39,432,84.39,435.77Z"/><path class="cls-3" d="M115.17,461.31q2.89-2.82,2.89-8.29V435.77q0-3.75,3.3-3.75h2.55v-6h-2.55q-3.3,0-3.3-3.75V405q0-5.47-2.89-8.29t-8.51-2.81h-3.3v5.93h1.8q5.7,0,5.7,5.85v16.42a9.18,9.18,0,0,0,.94,4.69,5.29,5.29,0,0,0,3.11,2.21,5.29,5.29,0,0,0-3.11,2.21,9.18,9.18,0,0,0-.94,4.69v16.43q0,5.85-5.7,5.85h-1.8v5.92h3.3Q112.29,464.12,115.17,461.31Z"/><path class="cls-3" d="M552.3,198.57q-3.22,2.2-9.75,2.21a28.12,28.12,0,0,1-9.64-1.69,22.86,22.86,0,0,1-7.69-4.39l-2.77,5.85a23.51,23.51,0,0,0,8.66,4.77,36.06,36.06,0,0,0,11.44,1.83,28.33,28.33,0,0,0,11.25-2,15.12,15.12,0,0,0,6.82-5.4,13.43,13.43,0,0,0,2.25-7.54,11.45,11.45,0,0,0-2.59-7.88A16,16,0,0,0,554.1,180a73.42,73.42,0,0,0-9.53-2.85,71.75,71.75,0,0,1-7.24-2,12.53,12.53,0,0,1-4.46-2.63,5.74,5.74,0,0,1-1.8-4.39,7.11,7.11,0,0,1,3.19-6q3.18-2.33,9.56-2.32a26.14,26.14,0,0,1,7.35,1.09,27,27,0,0,1,7.05,3.18l2.48-6a24.37,24.37,0,0,0-7.73-3.45,35.36,35.36,0,0,0-9.15-1.2,27.2,27.2,0,0,0-11.17,2,15.25,15.25,0,0,0-6.72,5.4,13.54,13.54,0,0,0-2.21,7.57,11.69,11.69,0,0,0,2.59,8,15.75,15.75,0,0,0,6.22,4.39,75.78,75.78,0,0,0,9.57,2.85c3.15.75,5.58,1.42,7.31,2a11.94,11.94,0,0,1,4.35,2.59,5.83,5.83,0,0,1,1.76,4.39A6.83,6.83,0,0,1,552.3,198.57Z"/><path class="cls-3" d="M583.2,203.67a31.06,31.06,0,0,0,28.57,0,25.67,25.67,0,0,0,10-9.6,28.12,28.12,0,0,0,0-27.53,25.67,25.67,0,0,0-10-9.6,31,31,0,0,0-28.57,0,25.87,25.87,0,0,0-10,9.64,27.76,27.76,0,0,0,0,27.45A25.87,25.87,0,0,0,583.2,203.67ZM579.71,170a19.08,19.08,0,0,1,7.35-7.24,21,21,0,0,1,10.46-2.62,20.65,20.65,0,0,1,10.39,2.62,19.29,19.29,0,0,1,7.27,7.24,21.26,21.26,0,0,1,0,20.63,19.26,19.26,0,0,1-7.27,7.23,20.65,20.65,0,0,1-10.39,2.63,21,21,0,0,1-10.46-2.63,19.06,19.06,0,0,1-7.35-7.23,21.33,21.33,0,0,1,0-20.63Z"/><path class="cls-3" d="M641.62,193.43h27.9l5.78,13.12h7.87l-23.85-52.5H651.9l-23.78,52.5h7.73Zm14-31.73,11.33,25.73H644.25Z"/><path class="cls-3" d="M698.47,190.65h13q10.2,0,16-4.87t5.85-13.43q0-8.55-5.85-13.42t-16-4.88H691v52.5h7.5Zm0-30.07h12.75q7.13,0,10.88,3c2.49,2,3.75,4.93,3.75,8.73s-1.26,6.72-3.75,8.74-6.13,3-10.88,3H698.47Z"/><polygon class="cls-3" points="138.8 249.78 121.61 200.71 117.07 200.71 134.26 249.78 138.8 249.78"/><path class="cls-3" d="M756.74,332l-7.13-2a32.91,32.91,0,0,1-3.42,9.31l-12.64-12.06q6-3.22,8.65-6.56a11.69,11.69,0,0,0,2.66-7.5,10.4,10.4,0,0,0-3.9-8.5q-3.88-3.18-10.25-3.19-6.94,0-11.12,3.47a11.21,11.21,0,0,0-4.18,9.07,12.79,12.79,0,0,0,1.38,5.8A26.63,26.63,0,0,0,721.4,326q-6.66,3.61-9.6,7.46a13.7,13.7,0,0,0-2.95,8.5,12.52,12.52,0,0,0,2.57,7.7,16.71,16.71,0,0,0,7.13,5.32,27.76,27.76,0,0,0,28.12-4.75l7.12,6.84,4.94-5.7-7.13-6.84A39,39,0,0,0,756.74,332ZM725.38,309.7A8.06,8.06,0,0,1,730.8,308a7.25,7.25,0,0,1,4.89,1.52,5,5,0,0,1,1.76,4,6,6,0,0,1-2,4.28,31.3,31.3,0,0,1-6.94,4.65,29.27,29.27,0,0,1-4.09-4.75,7,7,0,0,1-1-3.7A5.41,5.41,0,0,1,725.38,309.7Zm3.8,40.19a14.5,14.5,0,0,1-8.64-2.33,7.05,7.05,0,0,1-3.23-5.94,8.21,8.21,0,0,1,2-5.51,27.28,27.28,0,0,1,7.08-5.22l15,14.44A17.83,17.83,0,0,1,729.18,349.89Z"/><path class="cls-3" d="M810.88,332l-7.12-2a32.91,32.91,0,0,1-3.42,9.31L787.7,327.28q6-3.22,8.65-6.56a11.69,11.69,0,0,0,2.66-7.5,10.4,10.4,0,0,0-3.9-8.5q-3.89-3.18-10.26-3.19-6.93,0-11.11,3.47a11.21,11.21,0,0,0-4.18,9.07,12.79,12.79,0,0,0,1.38,5.8,26.84,26.84,0,0,0,4.6,6.17q-6.64,3.61-9.59,7.46A13.69,13.69,0,0,0,763,342a12.51,12.51,0,0,0,2.56,7.7,16.68,16.68,0,0,0,7.12,5.32,27.76,27.76,0,0,0,28.12-4.75l7.13,6.84,4.94-5.7-7.12-6.84A39,39,0,0,0,810.88,332ZM779.53,309.7A8.06,8.06,0,0,1,785,308a7.25,7.25,0,0,1,4.89,1.52,5,5,0,0,1,1.76,4,6,6,0,0,1-2,4.28,31.19,31.19,0,0,1-6.93,4.65,28.58,28.58,0,0,1-4.08-4.75,6.93,6.93,0,0,1-1.05-3.7A5.41,5.41,0,0,1,779.53,309.7Zm3.81,40.19a14.49,14.49,0,0,1-8.65-2.33,7.05,7.05,0,0,1-3.23-5.94,8.21,8.21,0,0,1,2-5.51,27.28,27.28,0,0,1,7.08-5.22l15,14.44A17.81,17.81,0,0,1,783.34,349.89Z"/><polygon class="cls-3" points="585.61 776.58 556.66 776.58 556.66 780.93 568.66 780.93 568.66 811.58 573.61 811.58 573.61 780.93 585.61 780.93 585.61 776.58"/><path class="cls-3" d="M598.31,806.28l-9.25-21.2h-5l11.7,26.45-.85,1.85a7.82,7.82,0,0,1-2.13,3.17,4.56,4.56,0,0,1-2.92.93,6.67,6.67,0,0,1-4.75-2l-2.05,3.6a7.69,7.69,0,0,0,3,1.82,11.53,11.53,0,0,0,3.78.63,9.05,9.05,0,0,0,5.47-1.65,13.18,13.18,0,0,0,4-5.7l12.85-29.15h-4.7Z"/><path class="cls-3" d="M637.61,786.53a14,14,0,0,0-6.9-1.7,12.76,12.76,0,0,0-5.4,1.12,10.09,10.09,0,0,0-4,3.33v-4.2h-4.6v36.2h4.8v-13.7a11,11,0,0,0,4,3.2,12.38,12.38,0,0,0,5.23,1.1,14,14,0,0,0,6.9-1.7,12.25,12.25,0,0,0,4.77-4.78,15.27,15.27,0,0,0,0-14.12A12.24,12.24,0,0,0,637.61,786.53Zm.47,16.67a8.4,8.4,0,0,1-3.2,3.3,9.4,9.4,0,0,1-9.12,0,8.14,8.14,0,0,1-3.2-3.3,10,10,0,0,1-1.15-4.87,9.81,9.81,0,0,1,1.17-4.85,8.62,8.62,0,0,1,3.2-3.28,8.89,8.89,0,0,1,4.53-1.17,9,9,0,0,1,4.57,1.15,8.32,8.32,0,0,1,3.2,3.27,10.66,10.66,0,0,1,0,9.75Z"/><path class="cls-3" d="M668.38,786.55a13.24,13.24,0,0,0-6.77-1.72,13.54,13.54,0,0,0-6.83,1.72,12.33,12.33,0,0,0-4.75,4.83,14,14,0,0,0-1.72,7,13.87,13.87,0,0,0,1.77,7,12.24,12.24,0,0,0,5,4.82,16.84,16.84,0,0,0,13.42.63,11.64,11.64,0,0,0,4.48-3.2l-2.65-3.1a9.86,9.86,0,0,1-7.65,3.2,10,10,0,0,1-6.53-2.13,8.3,8.3,0,0,1-3.07-5.62h21.5c.06-.6.1-1.08.1-1.45a14.66,14.66,0,0,0-1.68-7.1A12,12,0,0,0,668.38,786.55Zm-15.27,9.93a8.42,8.42,0,0,1,2.72-5.5,9,9,0,0,1,11.55,0,8.57,8.57,0,0,1,2.73,5.48Z"/><path class="cls-3" d="M700,793.88a49,49,0,0,0-6.35-1.9,46.45,46.45,0,0,1-4.83-1.33,8.24,8.24,0,0,1-3-1.75,3.82,3.82,0,0,1-1.2-2.92,4.76,4.76,0,0,1,2.12-4c1.42-1,3.54-1.55,6.38-1.55a17.67,17.67,0,0,1,4.9.72,18.61,18.61,0,0,1,4.7,2.13l1.65-4a16.22,16.22,0,0,0-5.15-2.3,23.76,23.76,0,0,0-6.1-.8,18.14,18.14,0,0,0-7.45,1.35,10.18,10.18,0,0,0-4.48,3.6,9,9,0,0,0-1.47,5,7.79,7.79,0,0,0,1.72,5.32,10.63,10.63,0,0,0,4.15,2.93,50.18,50.18,0,0,0,6.38,1.9q3.15.75,4.87,1.35a7.82,7.82,0,0,1,2.9,1.72,3.86,3.86,0,0,1,1.18,2.93,4.55,4.55,0,0,1-2.15,3.92c-1.44,1-3.6,1.48-6.5,1.48a18.89,18.89,0,0,1-6.43-1.13,15.29,15.29,0,0,1-5.12-2.92l-1.85,3.9a15.53,15.53,0,0,0,5.77,3.17,23.87,23.87,0,0,0,7.63,1.23,18.74,18.74,0,0,0,7.5-1.33,10,10,0,0,0,4.55-3.6,8.91,8.91,0,0,0,1.5-5,7.64,7.64,0,0,0-1.73-5.25A10.64,10.64,0,0,0,700,793.88Z"/><path class="cls-3" d="M719.23,790.18a9.44,9.44,0,0,1,4.68-1.15,8.9,8.9,0,0,1,4.1,1,8.17,8.17,0,0,1,3.1,2.85l3.65-2.35a10.44,10.44,0,0,0-4.38-4.2,13.8,13.8,0,0,0-6.42-1.45,14.92,14.92,0,0,0-7.23,1.72,12.61,12.61,0,0,0-5,4.8,14.41,14.41,0,0,0,0,13.95,12.82,12.82,0,0,0,5,4.83,14.82,14.82,0,0,0,7.23,1.75,13.57,13.57,0,0,0,6.42-1.48,10.54,10.54,0,0,0,4.38-4.22l-3.65-2.3a8.17,8.17,0,0,1-3.1,2.85,8.9,8.9,0,0,1-4.1.95,9.54,9.54,0,0,1-4.68-1.15,8.21,8.21,0,0,1-3.25-3.28,10.85,10.85,0,0,1,0-9.8A8.25,8.25,0,0,1,719.23,790.18Z"/><path class="cls-3" d="M745.56,789.53v-4.45H741v26.5h4.8v-13.2a9.22,9.22,0,0,1,2.22-6.63,8.08,8.08,0,0,1,6.13-2.32,10.31,10.31,0,0,1,1.1.05v-4.65a13.4,13.4,0,0,0-6,1.2A8.16,8.16,0,0,0,745.56,789.53Z"/><rect class="cls-3" x="761.11" y="785.08" width="4.8" height="26.5"/><path class="cls-3" d="M763.51,773.73a3.18,3.18,0,0,0-2.33.92,3,3,0,0,0-.92,2.23,2.93,2.93,0,0,0,.92,2.2,3.21,3.21,0,0,0,2.33.9,3.14,3.14,0,0,0,2.32-.93,3.06,3.06,0,0,0,.93-2.27,2.88,2.88,0,0,0-.93-2.18A3.26,3.26,0,0,0,763.51,773.73Z"/><path class="cls-3" d="M796,786.53a14,14,0,0,0-6.9-1.7,12.76,12.76,0,0,0-5.4,1.12,10.09,10.09,0,0,0-4.05,3.33v-4.2h-4.6v36.2h4.8v-13.7a11,11,0,0,0,4,3.2,12.34,12.34,0,0,0,5.23,1.1,14,14,0,0,0,6.9-1.7,12.25,12.25,0,0,0,4.77-4.78,15.27,15.27,0,0,0,0-14.12A12.24,12.24,0,0,0,796,786.53Zm.47,16.67a8.4,8.4,0,0,1-3.2,3.3,9.4,9.4,0,0,1-9.12,0,8.14,8.14,0,0,1-3.2-3.3,10,10,0,0,1-1.15-4.87,9.81,9.81,0,0,1,1.17-4.85,8.55,8.55,0,0,1,3.2-3.28,8.89,8.89,0,0,1,4.53-1.17,9,9,0,0,1,4.57,1.15,8.32,8.32,0,0,1,3.2,3.27,10.66,10.66,0,0,1,0,9.75Z"/><path class="cls-3" d="M818.81,807.83a4,4,0,0,1-3.08-1.15,4.65,4.65,0,0,1-1.07-3.3V789h7.6v-3.95h-7.6v-5.8h-4.8v5.8h-4.5V789h4.5v14.55a8.2,8.2,0,0,0,2.2,6.15,8.5,8.5,0,0,0,6.2,2.15,10.79,10.79,0,0,0,3.2-.48,7.08,7.08,0,0,0,2.6-1.37l-1.5-3.45A5.83,5.83,0,0,1,818.81,807.83Z"/><path class="cls-3" d="M39,683.09,21.6,721.59h5.67L31.5,712H52l4.24,9.63H62l-17.48-38.5Zm-5.61,24.47,8.31-18.86L50,707.56Z"/><path class="cls-3" d="M82.49,692.16a15.23,15.23,0,0,0-6.19,1.21A10.33,10.33,0,0,0,72,696.84v-4.4H66.92v29.15h5.29v-15c0-3.11.82-5.51,2.47-7.18a9.1,9.1,0,0,1,6.76-2.5A7.65,7.65,0,0,1,87.27,699c1.36,1.43,2,3.55,2,6.38v16.17h5.28V704.81q0-6.21-3.27-9.43A12,12,0,0,0,82.49,692.16Z"/><path class="cls-3" d="M127.42,697a11.36,11.36,0,0,0-4.64-3.58,15.61,15.61,0,0,0-6.14-1.21,16.2,16.2,0,0,0-7.56,1.76,13.2,13.2,0,0,0-5.31,5,15,15,0,0,0,0,14.68,13.35,13.35,0,0,0,5.31,5,16,16,0,0,0,7.56,1.79,15.38,15.38,0,0,0,5.92-1.13,11.75,11.75,0,0,0,4.59-3.38v2.31c0,3.3-.82,5.75-2.45,7.37s-4.15,2.42-7.56,2.42a19.09,19.09,0,0,1-6.19-1,15,15,0,0,1-5-2.78l-2.53,4.07a15.62,15.62,0,0,0,6,3.22,27.11,27.11,0,0,0,7.86,1.13q7.55,0,11.33-3.66t3.8-11.3V692.44h-5ZM126,711.16a9.06,9.06,0,0,1-3.58,3.39,10.86,10.86,0,0,1-5.14,1.21,11,11,0,0,1-5.2-1.21,9,9,0,0,1-3.57-3.39,9.42,9.42,0,0,1-1.3-4.92,9,9,0,0,1,2.81-6.85,11.32,11.32,0,0,1,14.46,0,9,9,0,0,1,2.81,6.85A9.41,9.41,0,0,1,126,711.16Z"/><path class="cls-3" d="M164.38,707.51c0,3.08-.8,5.46-2.42,7.15a8.72,8.72,0,0,1-6.6,2.53,7.6,7.6,0,0,1-5.83-2.18c-1.35-1.44-2-3.58-2-6.4V692.44h-5.28v16.77q0,6.27,3.35,9.49t9.19,3.22a13.19,13.19,0,0,0,5.69-1.24,10.74,10.74,0,0,0,4.21-3.49v4.4h5V692.44h-5.28Z"/><rect class="cls-3" x="179.73" y="680.78" width="5.28" height="40.81"/><path class="cls-3" d="M205.69,692.16a22.3,22.3,0,0,0-6.66,1,16,16,0,0,0-5.39,2.77l2.2,4a13.16,13.16,0,0,1,4.18-2.28,15.4,15.4,0,0,1,5.06-.85q3.85,0,5.83,1.81a6.73,6.73,0,0,1,2,5.23v1h-8.36q-6.1,0-8.91,2.34a8.13,8.13,0,0,0,.14,12.4,12.12,12.12,0,0,0,7.84,2.37,14.3,14.3,0,0,0,5.8-1.08,8.36,8.36,0,0,0,3.77-3.1v3.85h5V704q0-5.9-3.21-8.86T205.69,692.16Zm7.2,20.52a7.7,7.7,0,0,1-3.19,3.82,9.78,9.78,0,0,1-5.22,1.35,7.73,7.73,0,0,1-4.73-1.27,4.07,4.07,0,0,1-1.71-3.46q0-4.51,6.71-4.51h8.14Z"/><path class="cls-3" d="M233,697.33v-4.89H228v29.15h5.28V707.07q0-4.74,2.45-7.29a8.87,8.87,0,0,1,6.74-2.56,9.57,9.57,0,0,1,1.21.06v-5.12a14.79,14.79,0,0,0-6.55,1.32A9,9,0,0,0,233,697.33Z"/><path class="cls-3" d="M724.19,653.91h7.1l2.2-18h18.9l-2.2,18h7.1l2.2-18h14.8v-7.3h-13.9l2.4-19.4h14.7v-7.3h-13.8l2.2-18h-7.1l-2.2,18h-18.8l2.2-18h-7.1l-2.2,18h-14.9v7.3h14l-2.5,19.4h-14.7v7.3h13.8Zm12.7-44.7h18.8l-2.4,19.4h-18.9Z"/><path class="cls-3" d="M181,91.38a19.74,19.74,0,0,0,8.78,2q8.1,0,12.26-4.39t4.16-13.09V40.27h-26.4v6.52h19V76.27c0,3.5-.77,6.15-2.29,8s-3.76,2.7-6.71,2.7q-6.6,0-10.95-6.23l-4.35,5.1A16.72,16.72,0,0,0,181,91.38Z"/><path class="cls-3" d="M233.39,69.89q-8.32,0-12.15,3.19a10.44,10.44,0,0,0-3.83,8.44,10.33,10.33,0,0,0,4,8.47q4,3.23,10.68,3.23A19.57,19.57,0,0,0,240,91.75a11.34,11.34,0,0,0,5.13-4.23v5.25H252v-24q0-8-4.39-12.08t-12.64-4A30.89,30.89,0,0,0,225.89,54a21.86,21.86,0,0,0-7.35,3.79l3,5.4a17.68,17.68,0,0,1,5.7-3.11,20.91,20.91,0,0,1,6.9-1.16q5.25,0,8,2.47t2.7,7.13v1.42Zm11.4,10.73a10.53,10.53,0,0,1-4.35,5.21,13.44,13.44,0,0,1-7.13,1.84,10.63,10.63,0,0,1-6.45-1.73,5.55,5.55,0,0,1-2.32-4.72q0-6.15,9.15-6.15h11.1Z"/><polygon class="cls-3" points="282.37 92.77 299.76 53.02 292.71 53.02 278.76 84.89 265.12 53.02 257.62 53.02 275.01 92.77 282.37 92.77"/><path class="cls-3" d="M318.14,69.89q-8.33,0-12.15,3.19a10.44,10.44,0,0,0-3.83,8.44,10.33,10.33,0,0,0,4,8.47q4,3.23,10.68,3.23a19.57,19.57,0,0,0,7.92-1.47,11.34,11.34,0,0,0,5.13-4.23v5.25h6.83v-24q0-8-4.39-12.08t-12.64-4A30.89,30.89,0,0,0,310.64,54a21.86,21.86,0,0,0-7.35,3.79l3,5.4A17.68,17.68,0,0,1,312,60a20.91,20.91,0,0,1,6.9-1.16q5.25,0,7.95,2.47t2.7,7.13v1.42Zm11.4,10.73a10.53,10.53,0,0,1-4.35,5.21,13.44,13.44,0,0,1-7.13,1.84,10.63,10.63,0,0,1-6.45-1.73,5.55,5.55,0,0,1-2.32-4.72q0-6.15,9.15-6.15h11.1Z"/></g></g></g></svg>