<svg id="visual" viewBox="0 0 900 600" width="900" height="600" xmlns="http://www.w3.org/2000/svg" xmlns:xlink="http://www.w3.org/1999/xlink" version="1.1"><rect x="0" y="0" width="900" height="600" fill="#ffffff"></rect><path d="M630 0L540 100L598 200L498 300L464 400L440 500L629 600L0 600L0 500L0 400L0 300L0 200L0 100L0 0Z" fill="#ddccd0"></path><path d="M435 0L504 100L510 200L452 300L480 400L429 500L373 600L0 600L0 500L0 400L0 300L0 200L0 100L0 0Z" fill="#e8b8be"></path><path d="M265 0L322 100L398 200L243 300L408 400L368 500L321 600L0 600L0 500L0 400L0 300L0 200L0 100L0 0Z" fill="#f1a4a5"></path><path d="M262 0L216 100L206 200L214 300L300 400L191 500L233 600L0 600L0 500L0 400L0 300L0 200L0 100L0 0Z" fill="#f59186"></path><path d="M173 0L146 100L129 200L133 300L162 400L99 500L103 600L0 600L0 500L0 400L0 300L0 200L0 100L0 0Z" fill="#f38161"></path></svg>