<svg xmlns="http://www.w3.org/2000/svg" viewBox="0 0 565.28 565.76"><defs><style>.cls-1{fill:#231f20;}</style></defs><title>cloud_curvy_black</title><g id="Layer_2" data-name="Layer 2"><g id="Layer_1-2" data-name="Layer 1"><path class="cls-1" d="M442.6,131.47v-.4C442.6,58.68,381.38,0,305.87,0,234.8,0,176.4,52,169.78,118.45a78.31,78.31,0,0,0-13.18-1.13c-40.43,0-73.2,31.42-73.2,70.18a67.32,67.32,0,0,0,3.35,21C36.22,225.58,0,271.73,0,326c0,68.75,57.45,126.18,134.83,124.47v-9.59c-32,0-67.1-11.94-89.73-33.64S10,356.68,10,326s12.47-59.53,35.1-81.23a120.17,120.17,0,0,1,45.3-27.3q4.78-1.61,9.71-2.8a58.89,58.89,0,0,1-3.79-8.95A57.88,57.88,0,0,1,93.4,187.5c0-33.41,28.35-60.59,63.2-60.59a65.13,65.13,0,0,1,12.58,1.21,63.87,63.87,0,0,1,10,2.78q0-5.06.45-10c2.45-28.61,15.26-55.18,36.67-75.7,23.93-23,55.75-35.59,89.6-35.59s65.68,12.64,89.61,35.59C418.91,67.63,432,97.33,432.57,129c0,.68,0,1.37,0,2,0,2.59-.08,5.16-.26,7.72q5,1.13,9.85,2.54a160.25,160.25,0,0,1,66.32,38.25c30.16,28.91,46.77,67.35,46.77,108.23s-16.61,79.32-46.77,108.24a160.52,160.52,0,0,1-78.3,41.24v9.79c77.11-15.32,135.07-80.8,135.07-159.27C565.28,213.6,513.45,151,442.6,131.47Z"/><path class="cls-1" d="M206.55,524.16A108.22,108.22,0,0,1,197.21,382l-3.51,43.79,10,.8,4.8-59.68a5,5,0,0,0-7-5l-55.32,23.83,4,9.18,36.81-15.85a118.08,118.08,0,0,0,154.7,171.17l-7.35-7.35A108.24,108.24,0,0,1,206.55,524.16Z"/><path class="cls-1" d="M379.2,516.18A118.08,118.08,0,0,0,224.58,345.11l7.37,7.37A108.07,108.07,0,0,1,369.42,512.61l3.49-43.35-10-.8-4.8,59.69a5,5,0,0,0,5,5.4,5.09,5.09,0,0,0,2-.41l55.32-23.82-4-9.19Z"/></g></g></svg>