<svg xmlns="http://www.w3.org/2000/svg" viewBox="0 0 577.6 577.6"><defs><style>.cls-1{fill:#b78a43;}</style></defs><title>gold_transparent</title><g id="Layer_2" data-name="Layer 2"><g id="Layer_1-2" data-name="Layer 1"><path class="cls-1" d="M493,84.59A288.8,288.8,0,1,0,84.59,493,288.8,288.8,0,0,0,493,84.59Zm53.65,193.77H440.83a327.62,327.62,0,0,0-25.44-117.22,264.16,264.16,0,0,0,58.3-43.9l4.07-4A257.14,257.14,0,0,1,546.67,278.36Zm-247.43-238L329.92,71a308.55,308.55,0,0,1,58,80.34,243.46,243.46,0,0,1-88.69,21.1Zm45.45,15.91L321.15,32.73A257.31,257.31,0,0,1,462.94,98.48l-4,4A240.49,240.49,0,0,1,406.59,142,329.39,329.39,0,0,0,344.69,56.26ZM247.89,71l30.47-30.47v132a243.33,243.33,0,0,1-88.67-20.48A306.76,306.76,0,0,1,247.89,71Zm-77,71.72a240.68,240.68,0,0,1-53-39.58l-4-3.94A257.28,257.28,0,0,1,256.69,32.7L233.13,56.26A329.52,329.52,0,0,0,170.85,142.75Zm107.51,51v84.65H158a308.55,308.55,0,0,1,23-107.08A261.83,261.83,0,0,0,278.36,193.71Zm0,105.53v82.45a261.72,261.72,0,0,0-98.12,22.78A308.59,308.59,0,0,1,158,299.24Zm0,103.63V537.05l-30.47-30.47a306.53,306.53,0,0,1-59.08-82.85A243.16,243.16,0,0,1,278.36,402.87ZM233.13,521.34l23.56,23.56a257.3,257.3,0,0,1-144-67.59l5.15-5.09A240.72,240.72,0,0,1,170,433.12,329.11,329.11,0,0,0,233.13,521.34Zm96.79-14.76-30.68,30.68V402.93a243.27,243.27,0,0,1,89.57,21.49A308.38,308.38,0,0,1,329.92,506.58Zm77.52-72.69A240.5,240.5,0,0,1,459,473l5.13,5.11a257.34,257.34,0,0,1-142.94,66.82l23.54-23.54A329.45,329.45,0,0,0,407.44,433.89Zm-108.2-52.14V299.24h120.7a306.83,306.83,0,0,1-22.49,106A261.69,261.69,0,0,0,299.24,381.75Zm0-103.39V193.65a261.76,261.76,0,0,0,97.46-23.11,307.11,307.11,0,0,1,23.24,107.82ZM99.1,114l4.09,4a264.39,264.39,0,0,0,58.9,43.88A327.62,327.62,0,0,0,137,278.36H30.93A257.1,257.1,0,0,1,99.1,114ZM30.93,299.24H137A327.6,327.6,0,0,0,161.35,413.9a264.32,264.32,0,0,0-58.16,43.46L98,462.46A257.09,257.09,0,0,1,30.93,299.24Zm447.89,164-5.13-5.11a264.19,264.19,0,0,0-57.53-43.48,327.81,327.81,0,0,0,24.67-115.44H546.67A257.08,257.08,0,0,1,478.82,463.27Z"/></g></g></svg>