<svg xmlns="http://www.w3.org/2000/svg" viewBox="0 0 577.61 577.61"><defs><style>.cls-1{fill:#b78a43;}.cls-2{fill:#fff;}</style></defs><title>gold_white</title><g id="Layer_2" data-name="Layer 2"><g id="Layer_1-2" data-name="Layer 1"><path class="cls-1" d="M493,84.59A288.8,288.8,0,1,0,84.59,493,288.8,288.8,0,1,0,493,84.59ZM256.69,32.71,233.13,56.26a329.6,329.6,0,0,0-62.27,86.5,240.81,240.81,0,0,1-53-39.59l-4-3.93A257.31,257.31,0,0,1,256.69,32.71ZM99.11,114l4.09,4a264.13,264.13,0,0,0,58.9,43.89A327.36,327.36,0,0,0,137,278.36H30.94A257.07,257.07,0,0,1,99.11,114ZM98,462.46a257,257,0,0,1-67.1-163.22H137A327.32,327.32,0,0,0,161.35,413.9a264.31,264.31,0,0,0-58.15,43.47Zm14.67,14.85,5.15-5.08A239.89,239.89,0,0,1,170,433.13a329.19,329.19,0,0,0,63.12,88.21l23.56,23.57A257.31,257.31,0,0,1,112.71,477.31Zm165.65,59.74-30.47-30.47a306.92,306.92,0,0,1-59.08-82.84,243.18,243.18,0,0,1,89.55-20.87Zm0-155.36a261.77,261.77,0,0,0-98.12,22.79A308.92,308.92,0,0,1,158,299.24H278.36Zm0-103.33H158a308.54,308.54,0,0,1,23-107.07,262.13,262.13,0,0,0,97.34,22.43Zm0-105.82a243.34,243.34,0,0,1-88.67-20.49,307.31,307.31,0,0,1,58.2-81l30.47-30.46Zm199.41-59.35a257.18,257.18,0,0,1,68.9,165.17H440.83A327.71,327.71,0,0,0,415.4,161.14a264.35,264.35,0,0,0,58.3-43.89ZM462.94,98.48l-4,4A240.94,240.94,0,0,1,406.6,142a330,330,0,0,0-61.91-85.73L321.16,32.73A257.32,257.32,0,0,1,462.94,98.48ZM299.24,40.35,329.93,71a308.46,308.46,0,0,1,58,80.35,243.57,243.57,0,0,1-88.69,21.1Zm0,153.3a261.89,261.89,0,0,0,97.46-23.1,306.83,306.83,0,0,1,23.24,107.81H299.24Zm0,105.59h120.7a306.5,306.5,0,0,1-22.49,106,261.87,261.87,0,0,0-98.21-23.44Zm0,103.69a243.37,243.37,0,0,1,89.58,21.49,308.44,308.44,0,0,1-58.89,82.16l-30.69,30.68Zm21.92,142,23.53-23.54a329.06,329.06,0,0,0,62.75-87.45A240.3,240.3,0,0,1,459,473l5.14,5.1A257.33,257.33,0,0,1,321.16,544.88Zm157.66-81.61-5.12-5.11a264.33,264.33,0,0,0-57.54-43.48,327.77,327.77,0,0,0,24.67-115.44H546.67A257,257,0,0,1,478.82,463.27Z"/><path class="cls-2" d="M170,433.13a239.89,239.89,0,0,0-52.15,39.1l-5.15,5.08a257.31,257.31,0,0,0,144,67.6l-23.56-23.57A329.19,329.19,0,0,1,170,433.13Z"/><path class="cls-2" d="M247.89,506.58l30.47,30.47V402.87a243.18,243.18,0,0,0-89.55,20.87A306.92,306.92,0,0,0,247.89,506.58Z"/><path class="cls-2" d="M388.82,424.42a243.37,243.37,0,0,0-89.58-21.49V537.26l30.69-30.68A308.44,308.44,0,0,0,388.82,424.42Z"/><path class="cls-2" d="M407.44,433.89a329.06,329.06,0,0,1-62.75,87.45l-23.53,23.54A257.33,257.33,0,0,0,464.1,478.06L459,473A240.3,240.3,0,0,0,407.44,433.89Z"/><path class="cls-2" d="M416.16,414.68a264.33,264.33,0,0,1,57.54,43.48l5.12,5.11a257,257,0,0,0,67.85-164H440.83A327.77,327.77,0,0,1,416.16,414.68Z"/><path class="cls-2" d="M419.94,299.24H299.24v82.52a261.87,261.87,0,0,1,98.21,23.44A306.5,306.5,0,0,0,419.94,299.24Z"/><path class="cls-2" d="M180.24,404.48a261.77,261.77,0,0,1,98.12-22.79V299.24H158A308.92,308.92,0,0,0,180.24,404.48Z"/><path class="cls-2" d="M137,299.24H30.94A257,257,0,0,0,98,462.46l5.16-5.09a264.31,264.31,0,0,1,58.15-43.47A327.32,327.32,0,0,1,137,299.24Z"/><path class="cls-2" d="M162.1,161.92A264.13,264.13,0,0,1,103.2,118l-4.09-4A257.07,257.07,0,0,0,30.94,278.36H137A327.36,327.36,0,0,1,162.1,161.92Z"/><path class="cls-2" d="M158,278.36H278.36V193.72A262.13,262.13,0,0,1,181,171.29,308.54,308.54,0,0,0,158,278.36Z"/><path class="cls-2" d="M396.7,170.55a261.89,261.89,0,0,1-97.46,23.1v84.71h120.7A306.83,306.83,0,0,0,396.7,170.55Z"/><path class="cls-2" d="M440.83,278.36H546.67a257.18,257.18,0,0,0-68.9-165.17l-4.07,4.06a264.35,264.35,0,0,1-58.3,43.89A327.71,327.71,0,0,1,440.83,278.36Z"/><path class="cls-2" d="M406.6,142A240.94,240.94,0,0,0,459,102.45l4-4A257.32,257.32,0,0,0,321.16,32.73l23.53,23.53A330,330,0,0,1,406.6,142Z"/><path class="cls-2" d="M329.93,71,299.24,40.35V172.48a243.57,243.57,0,0,0,88.69-21.1A308.46,308.46,0,0,0,329.93,71Z"/><path class="cls-2" d="M189.69,152.05a243.34,243.34,0,0,0,88.67,20.49v-132L247.89,71A307.31,307.31,0,0,0,189.69,152.05Z"/><path class="cls-2" d="M170.86,142.76a329.6,329.6,0,0,1,62.27-86.5l23.56-23.55A257.31,257.31,0,0,0,113.86,99.24l4,3.93A240.81,240.81,0,0,0,170.86,142.76Z"/></g></g></svg>